<svg xmlns="http://www.w3.org/2000/svg" xmlns:xlink="http://www.w3.org/1999/xlink" width="960" zoomAndPan="magnify" viewBox="0 0 720 719.999996" height="960" preserveAspectRatio="xMidYMid meet" version="1.0"><defs><clipPath id="885007389a"><path d="M 216 258.660156 L 504 258.660156 L 504 461.160156 L 216 461.160156 Z M 216 258.660156 " clip-rule="nonzero"/></clipPath></defs><g clip-path="url(#885007389a)"><path fill="#192e59" d="M 490.5 258.746094 L 229.5 258.746094 C 222.074219 258.746094 216 264.824219 216 272.246094 L 216 429.746094 C 216 437.171875 222.074219 443.246094 229.5 443.246094 L 355.5 443.246094 L 355.5 452.246094 L 315 452.246094 C 312.523438 452.246094 310.5 454.273438 310.5 456.746094 C 310.5 459.222656 312.523438 461.246094 315 461.246094 L 405 461.246094 C 407.476562 461.246094 409.5 459.222656 409.5 456.746094 C 409.5 454.273438 407.476562 452.246094 405 452.246094 L 364.5 452.246094 L 364.5 443.246094 L 490.5 443.246094 C 497.925781 443.246094 504 437.171875 504 429.746094 L 504 272.246094 C 504 264.824219 497.925781 258.746094 490.5 258.746094 Z M 495 429.746094 C 495 432.222656 492.976562 434.246094 490.5 434.246094 L 229.5 434.246094 C 227.023438 434.246094 225 432.222656 225 429.746094 L 225 272.246094 C 225 269.773438 227.023438 267.746094 229.5 267.746094 L 490.5 267.746094 C 492.976562 267.746094 495 269.773438 495 272.246094 Z M 495 429.746094 " fill-opacity="1" fill-rule="nonzero"/></g><path fill="#192e59" d="M 313.875 296.546875 C 314.773438 297.222656 315.675781 297.671875 316.800781 297.671875 C 318.148438 297.671875 319.273438 297.222656 320.175781 296.097656 C 321.75 294.296875 321.523438 291.371094 319.726562 289.796875 L 316.351562 286.871094 C 314.550781 285.296875 311.625 285.523438 310.050781 287.324219 C 308.476562 289.121094 308.699219 292.046875 310.5 293.621094 Z M 313.875 296.546875 " fill-opacity="1" fill-rule="nonzero"/><path fill="#192e59" d="M 460.574219 297.449219 C 461.476562 297.449219 462.375 297.222656 463.273438 296.546875 L 466.875 293.847656 C 468.898438 292.273438 469.351562 289.574219 467.773438 287.546875 C 466.199219 285.523438 463.5 285.074219 461.476562 286.648438 L 457.875 289.347656 C 455.851562 290.921875 455.398438 293.621094 456.976562 295.648438 C 457.875 296.773438 459.226562 297.449219 460.574219 297.449219 Z M 460.574219 297.449219 " fill-opacity="1" fill-rule="nonzero"/><path fill="#192e59" d="M 481.5 380.246094 L 297 380.246094 L 297 281.246094 C 297 278.773438 294.976562 276.746094 292.5 276.746094 L 238.5 276.746094 C 236.023438 276.746094 234 278.773438 234 281.246094 L 234 420.746094 C 234 423.222656 236.023438 425.246094 238.5 425.246094 L 481.5 425.246094 C 483.976562 425.246094 486 423.222656 486 420.746094 L 486 384.746094 C 486 382.273438 483.976562 380.246094 481.5 380.246094 Z M 288 416.246094 L 243 416.246094 L 243 366.746094 L 288 366.746094 Z M 288 357.746094 L 243 357.746094 L 243 285.746094 L 288 285.746094 Z M 477 398.246094 L 337.5 398.246094 C 335.023438 398.246094 333 400.273438 333 402.746094 C 333 405.222656 335.023438 407.246094 337.5 407.246094 L 477 407.246094 L 477 416.246094 L 297 416.246094 L 297 389.246094 L 477 389.246094 Z M 477 398.246094 " fill-opacity="1" fill-rule="nonzero"/><path fill="#192e59" d="M 363.375 362.246094 L 337.5 362.246094 C 335.023438 362.246094 333 364.273438 333 366.746094 C 333 369.222656 335.023438 371.246094 337.5 371.246094 L 423 371.246094 C 425.476562 371.246094 427.5 369.222656 427.5 366.746094 C 427.5 364.273438 425.476562 362.246094 423 362.246094 L 397.125 362.246094 C 399.375 359.097656 400.5 355.046875 400.5 350.996094 C 400.5 339.746094 391.5 330.746094 380.25 330.746094 C 369 330.746094 360 339.746094 360 350.996094 C 360 355.046875 361.351562 359.097656 363.375 362.246094 Z M 380.25 339.746094 C 386.550781 339.746094 391.5 344.699219 391.5 350.996094 C 391.5 357.296875 386.550781 362.246094 380.25 362.246094 C 373.949219 362.246094 369 357.296875 369 350.996094 C 369 344.699219 373.949219 339.746094 380.25 339.746094 Z M 380.25 339.746094 " fill-opacity="1" fill-rule="nonzero"/><path fill="#192e59" d="M 356.398438 333.898438 C 358.199219 331.421875 360.226562 329.171875 362.699219 327.371094 L 358.875 323.996094 C 357.074219 322.421875 354.148438 322.648438 352.574219 324.449219 C 351 326.246094 351.226562 329.171875 353.023438 330.746094 Z M 356.398438 333.898438 " fill-opacity="1" fill-rule="nonzero"/><path fill="#192e59" d="M 337.273438 317.246094 C 338.175781 317.921875 339.074219 318.371094 340.199219 318.371094 C 341.550781 318.371094 342.675781 317.921875 343.574219 316.796875 C 345.148438 314.996094 344.925781 312.074219 343.125 310.496094 L 335.25 303.746094 C 333.449219 302.171875 330.523438 302.398438 328.949219 304.199219 C 327.375 305.996094 327.601562 308.921875 329.398438 310.496094 Z M 337.273438 317.246094 " fill-opacity="1" fill-rule="nonzero"/><path fill="#192e59" d="M 420.074219 327.597656 C 420.976562 327.597656 421.875 327.371094 422.773438 326.699219 L 429.523438 321.746094 C 431.550781 320.171875 432 317.472656 430.425781 315.449219 C 428.851562 313.421875 426.148438 312.972656 424.125 314.546875 L 417.375 319.496094 C 415.351562 321.074219 414.898438 323.773438 416.476562 325.796875 C 417.375 326.921875 418.726562 327.597656 420.074219 327.597656 Z M 420.074219 327.597656 " fill-opacity="1" fill-rule="nonzero"/><path fill="#192e59" d="M 409.273438 336.824219 C 411.300781 335.246094 411.75 332.546875 410.175781 330.523438 C 408.601562 328.496094 405.898438 328.046875 403.875 329.621094 L 401.625 331.199219 C 403.648438 333.449219 405.449219 335.921875 406.574219 338.621094 Z M 409.273438 336.824219 " fill-opacity="1" fill-rule="nonzero"/><path fill="#192e59" d="M 440.324219 312.523438 C 441.226562 312.523438 442.125 312.296875 443.023438 311.621094 L 449.773438 306.671875 C 451.800781 305.097656 452.25 302.398438 450.675781 300.371094 C 449.101562 298.347656 446.398438 297.898438 444.375 299.472656 L 437.625 304.421875 C 435.601562 305.996094 435.148438 308.699219 436.726562 310.722656 C 437.625 311.847656 438.976562 312.523438 440.324219 312.523438 Z M 440.324219 312.523438 " fill-opacity="1" fill-rule="nonzero"/></svg>