<?xml version="1.0" encoding="UTF-8" standalone="no"?>
<!-- Created with Inkscape (http://www.inkscape.org/) -->

<svg
   width="672.53937"
   height="942.37903"
   viewBox="0 0 672.53937 942.37903"
   version="1.1"
   id="svg1"
   xml:space="preserve"
   xmlns="http://www.w3.org/2000/svg"
   xmlns:svg="http://www.w3.org/2000/svg"><defs
     id="defs1"><rect
       x="241.44231"
       y="542.59613"
       width="436.15384"
       height="132.40385"
       id="rect2" /><rect
       x="225.86539"
       y="386.82693"
       width="243.43555"
       height="338.66104"
       id="rect1" /></defs><g
     id="layer1"
     transform="translate(-203.11575,-68.947983)"><path
       style="fill:#7d8f60;fill-opacity:1;stroke:#7d8f60;stroke-width:1.91271;stroke-opacity:1"
       d="M 218.06669,184.34949 760.67066,70.117084 a 9.8203934,9.8203934 0 0 1 11.84316,9.527453 l 7.24742,864.860123 a 12.057467,12.057467 0 0 1 -11.8984,12.15746 L 225.77161,963.7949 A 11.957204,11.957204 0 0 1 213.65764,951.95333 L 206.4391,198.82107 a 14.645356,14.645356 0 0 1 11.62759,-14.47158 z"
       id="path8" /><path
       style="fill:#ffffff;fill-opacity:1;stroke:#7d8f60;stroke-width:1.91271;stroke-opacity:1"
       d="M 215.7594,204.50607 770.70047,84.980306 a 6.4341474,6.4341474 39.036437 0 1 7.78884,6.315488 l -3.44766,867.086076 a 8.0855979,8.0855979 134.92292 0 1 -8.03163,8.05327 l -510.69177,3.40462 a 8.3780546,8.3780546 43.29571 0 1 -8.42222,-7.93551 L 208.36115,214.17936 a 9.3880651,9.3880651 127.40922 0 1 7.39825,-9.67329 z"
       id="path10" /><path
       style="fill:#ffffff;fill-opacity:1;stroke:#7d8f60;stroke-width:1.91271;stroke-opacity:1"
       d="M 219.29376,216.90647 781.21123,104.18139 a 6.5274483,6.5274483 39.444509 0 1 7.81128,6.42642 l -3.44638,849.52971 a 7.9578014,7.9578014 135.38395 0 1 -8.0321,7.92517 l -547.56051,-5.1174 a 8.1902076,8.1902076 44.862362 0 1 -8.11285,-8.07396 L 211.56323,226.47918 a 9.6245365,9.6245365 128.92292 0 1 7.73053,-9.57271 z"
       id="path11" /><path
       style="fill:#ffffff;fill-opacity:1;stroke:#7d8f60;stroke-width:1.91271;stroke-opacity:1"
       d="m 226.3669,225.96208 572.35013,-93.96792 a 6.7342818,6.7342818 40.586232 0 1 7.82505,6.70362 l -6.88404,795.10539 a 8.0450731,8.0450731 135.3351 0 1 -8.06922,7.97538 l -561.60499,-1.707 a 8.0639798,8.0639798 44.945954 0 1 -8.03937,-8.02422 L 218.512,235.25806 a 9.3736432,9.3736432 130.19708 0 1 7.8549,-9.29598 z"
       id="path12" /><path
       style="fill:#ffffff;fill-opacity:1;stroke:#7d8f60;stroke-width:1.91271;stroke-opacity:1"
       d="m 236.93829,236.7502 572.27499,-75.16448 a 6.9698465,6.9698465 41.454031 0 1 7.87734,6.95801 l -5.15784,756.48115 a 8.3834152,8.3834152 134.05002 0 1 -8.04815,8.31955 l -554.59513,22.1838 a 7.8191367,7.8191367 43.364437 0 1 -8.13051,-7.67909 L 229.14331,245.79083 a 8.9635682,8.9635682 130.76845 0 1 7.79498,-9.04063 z"
       id="path13" /><path
       style="fill:#ffffff;fill-opacity:1;stroke:#7d8f60;stroke-width:1.91271;stroke-opacity:1"
       d="m 263.61567,249.91612 565.19512,-56.34876 a 7.2420772,7.2420772 42.153273 0 1 7.96054,7.20635 v 768.77022 a 8.1684025,8.1684025 134.40326 0 1 -7.99826,8.16663 l -573.89786,11.9562 a 7.7425376,7.7425376 44.743475 0 1 -7.90325,-7.83281 l 8.58816,-723.12474 a 8.9434118,8.9434118 132.49349 0 1 8.05555,-8.79309 z"
       id="path14" /><path
       style="fill:#bf4643;fill-opacity:1;stroke:#bf4643;stroke-width:1.88872;stroke-opacity:1"
       id="rect3"
       width="614.80469"
       height="762.01208"
       x="259.90607"
       y="247.19478"
       d="m 281.93516,247.19478 h 570.7465 c 12.20412,0 22.02909,9.83335 22.02909,22.04787 v 717.91634 c 0,12.21452 -9.82497,22.04791 -22.02909,22.04791 h -570.7465 c -12.20412,0 -22.02909,-9.83339 -22.02909,-22.04791 V 269.24265 c 0,-12.21452 9.82497,-22.04787 22.02909,-22.04787 z"
       ry="22.047876"
       transform="matrix(1,0,0,0.99914826,0,0.85958491)"
       rx="22.029097" /><text
       xml:space="preserve"
       id="text1"
       style="font-style:normal;font-variant:normal;font-weight:normal;font-stretch:normal;font-size:53.3333px;font-family:'Playfair Display';-inkscape-font-specification:'Playfair Display';text-align:start;writing-mode:lr-tb;direction:ltr;white-space:pre;shape-inside:url(#rect1);display:inline;fill:#ffffff;fill-opacity:1;stroke:none"
       transform="matrix(1.9127119,0,0,1.9127119,-104.63424,-416.81146)"><tspan
         x="225.86523"
         y="436.78363"
         id="tspan1">Bruton </tspan><tspan
         x="225.86523"
         y="503.45026"
         id="tspan3">Memorial </tspan><tspan
         x="225.86523"
         y="570.11688"
         id="tspan7">Library</tspan></text><rect
       style="opacity:1;fill:#bf4643;fill-opacity:1;stroke:none;stroke-width:0.999995;stroke-opacity:1"
       id="rect30"
       width="73.353371"
       height="762.875"
       x="258.84189"
       y="247.1783" /><path
       id="path9"
       style="fill:#9eb37c;fill-opacity:1;stroke:#7d8f60;stroke-width:1.90343;stroke-opacity:1"
       d="m 206.7168,195.19922 c -0.16115,0.16262 -0.31304,0.33565 -0.44727,0.52344 -0.012,0.0175 -0.0231,0.0369 -0.0352,0.0547 l 5.18554,765.38868 c 1.74719,36.68956 47.17188,48.91986 47.17188,48.91986 l 1.74804,-761.74408 c -44.10141,1.37797 -52.12848,-36.73181 -53.62304,-53.14258 z" /><path
       style="fill:#7d8f60;fill-opacity:1;stroke:#ffffff;stroke-width:1.69148;stroke-opacity:0.918919"
       d="m 203.96679,207.61649 c 0,0 -1.44791,59.93404 44.88427,58.26918 l -1.44787,725.86782 c 0,0 -37.64488,-11.65383 -39.09277,-46.61535 z"
       id="path9-9" /></g><g
     id="layer2"
     transform="translate(-203.11575,-68.947983)"><path
       style="opacity:1;fill:#7d8f60;fill-opacity:1;stroke:#ffffff;stroke-width:1.91271;stroke-opacity:1"
       d="m 661.77122,789.94018 c 0,0 3.51126,-15.80074 9.656,-19.31202 0,0 7.46147,-3.07235 15.80074,2.63346 8.33929,5.70583 -16.67856,22.38439 -16.67856,22.38439 z"
       id="path15" /><path
       style="display:inline;opacity:1;fill:#bf4643;fill-opacity:1;stroke:#ffffff;stroke-width:1.91271;stroke-opacity:1"
       d="m 620.95263,868.9439 c 0,0 -12.72837,72.42007 69.3477,96.1212 0,0 86.02626,39.9407 121.13902,-4.82801 0,0 17.99529,-13.6062 17.11747,-47.40225 0,0 8.33929,-133.42848 -80.75934,-144.84012"
       id="path1" /><path
       style="opacity:1;fill:#7d8f60;fill-opacity:1;stroke:#ffffff;stroke-width:1.91271;stroke-opacity:1"
       d="m 677.57196,809.69111 c 0,0 59.25277,6.58365 67.59206,-21.94548 0,0 9.21709,-9.656 -3.95019,-10.09491 0,0 -50.9135,2.19455 -63.64187,32.04039 z"
       id="path18" /><path
       style="opacity:1;fill:#7d8f60;fill-opacity:1;stroke:#ffffff;stroke-width:1.91271;stroke-opacity:1"
       d="m 649.92065,800.91293 c 0,0 6.58365,2.63346 -17.11747,9.656 0,0 -6.58363,-2.19455 -7.46145,5.70583 l 3.51126,10.53382 37.30731,-13.60619 z"
       id="path7" /><path
       style="opacity:1;fill:#7d8f60;fill-opacity:1;stroke:#ffffff;stroke-width:1.91271;stroke-opacity:1"
       d="m 660.01558,811.88566 c 0,0 -19.75093,0.43891 -39.50186,25.89567 0,0 -7.02256,10.53382 -19.31202,14.48401 0,0 -13.16728,9.21709 7.90038,11.41164 l 13.60619,-7.02254 z"
       id="path6" /><path
       style="display:inline;opacity:1;fill:#7d8f60;fill-opacity:1;stroke:#ffffff;stroke-width:1.91271;stroke-opacity:1"
       d="m 664.40466,812.76348 c 0,0 -27.21238,10.97273 -42.1353,39.06295 0,0 -0.43891,4.82801 -10.97275,12.28946 0,0 -9.656,10.53384 9.65602,5.70583 0,0 14.0451,-2.19455 22.38439,-13.60619 0,0 17.55638,-30.28477 30.72366,-41.69641 z"
       id="path3" /><path
       style="opacity:1;fill:#7d8f60;fill-opacity:1;stroke:#ffffff;stroke-width:1.91271;stroke-opacity:1"
       d="m 674.9385,813.6413 c 0,0 -34.67385,27.2124 -29.40695,56.18042 0,0 2.19455,21.94548 19.75093,2.63346 0,0 25.89567,-14.48401 9.65602,-58.81388 z"
       id="path4" /><path
       style="opacity:1;fill:#7d8f60;fill-opacity:1;stroke:#ffffff;stroke-width:1.91271;stroke-opacity:1"
       d="m 675.37741,811.44675 c 0,0 65.83642,-7.90036 40.37968,29.40695 0,0 -36.42949,35.99058 -40.37968,-29.40695 z"
       id="path5" /><path
       style="opacity:1;fill:#7d8f60;fill-opacity:1;stroke:#ffffff;stroke-width:1.91271;stroke-opacity:1"
       d="m 669.67158,794.32928 c 0,0 28.52913,-27.21238 37.74622,-46.08549 0,0 7.90038,-2.63346 8.33929,3.95017 0.43891,6.58365 4.38908,12.72839 -2.19455,18.87311 -6.58365,6.14474 -34.23494,31.6015 -34.67385,39.06295 -0.43891,7.46147 -9.21711,-15.80074 -9.21711,-15.80074 z"
       id="path16" /><path
       style="opacity:1;fill:#7d8f60;fill-opacity:1;stroke:#ffffff;stroke-width:1.91271;stroke-opacity:1"
       d="m 677.20835,803.10748 c 0,0 -32.47932,-30.72368 -59.6917,-40.37968 0,0 -13.16728,4.82801 -10.09491,17.11747 0,0 51.35241,21.06766 64.51969,36.8684 0,0 7.90038,-4.82801 5.26692,-13.60619 z"
       id="path17" /><path
       style="opacity:1;fill:#7d8f60;fill-opacity:1;stroke:#ffffff;stroke-width:1.91271;stroke-opacity:0.80695"
       d="m 684.15559,800.47402 c 0,0 66.71426,-15.80074 67.15317,-38.18513 0,0 5.70581,-13.16728 -7.90038,-8.33929 0,0 -4.82801,8.33929 -35.55167,21.94548 z"
       id="path19" /><text
       xml:space="preserve"
       id="text2"
       style="font-style:normal;font-variant:normal;font-weight:normal;font-stretch:normal;font-size:32px;font-family:'Playfair Display';-inkscape-font-specification:'Playfair Display';text-align:start;writing-mode:lr-tb;direction:ltr;white-space:pre;shape-inside:url(#rect2);display:inline;fill:#ffffff;fill-opacity:1;stroke:none"
       transform="matrix(1.9127119,0,0,1.9127119,233.5075,-173.88501)"><tspan
         x="241.44141"
         y="572.5702"
         id="tspan8">1929</tspan></text></g></svg>
