<svg xmlns="http://www.w3.org/2000/svg" xmlns:xlink="http://www.w3.org/1999/xlink" width="960" zoomAndPan="magnify" viewBox="0 0 720 719.999996" height="960" preserveAspectRatio="xMidYMid meet" version="1.0"><defs><clipPath id="72e1a73fc8"><path d="M 295 115.152344 L 320 115.152344 L 320 191 L 295 191 Z M 295 115.152344 " clip-rule="nonzero"/></clipPath><clipPath id="34eadc0889"><path d="M 115.152344 295 L 191 295 L 191 320 L 115.152344 320 Z M 115.152344 295 " clip-rule="nonzero"/></clipPath><clipPath id="252e18ae8b"><path d="M 527 398 L 604.902344 398 L 604.902344 424 L 527 424 Z M 527 398 " clip-rule="nonzero"/></clipPath><clipPath id="6fa26f646c"><path d="M 398 527 L 424 527 L 424 604.902344 L 398 604.902344 Z M 398 527 " clip-rule="nonzero"/></clipPath></defs><path fill="#192e59" d="M 578.742188 242.898438 C 578.753906 239.507812 578.601562 236.125 578.285156 232.753906 C 577.964844 229.378906 577.484375 226.027344 576.835938 222.703125 C 576.1875 219.375 575.378906 216.089844 574.40625 212.84375 C 573.433594 209.597656 572.308594 206.40625 571.023438 203.269531 C 569.738281 200.132812 568.300781 197.066406 566.714844 194.074219 C 565.128906 191.078125 563.402344 188.167969 561.527344 185.34375 C 559.65625 182.519531 557.652344 179.792969 555.511719 177.164062 C 553.371094 174.539062 551.105469 172.023438 548.71875 169.617188 C 547.5 168.453125 546.25 167.320312 544.976562 166.214844 C 543.699219 165.109375 542.398438 164.035156 541.074219 162.992188 C 539.746094 161.953125 538.398438 160.941406 537.023438 159.960938 C 535.648438 158.984375 534.253906 158.039062 532.832031 157.128906 C 531.414062 156.214844 529.972656 155.339844 528.511719 154.496094 C 527.050781 153.652344 525.574219 152.84375 524.074219 152.070312 C 522.574219 151.296875 521.058594 150.5625 519.523438 149.859375 C 517.988281 149.160156 516.4375 148.496094 514.871094 147.871094 C 513.304688 147.242188 511.726562 146.652344 510.132812 146.101562 C 508.539062 145.550781 506.929688 145.035156 505.3125 144.5625 C 503.695312 144.085938 502.066406 143.648438 500.425781 143.253906 C 498.785156 142.855469 497.140625 142.496094 495.480469 142.175781 C 493.824219 141.859375 492.164062 141.578125 490.492188 141.339844 C 488.824219 141.097656 487.148438 140.898438 485.46875 140.738281 C 483.789062 140.578125 482.109375 140.457031 480.425781 140.378906 C 478.738281 140.296875 477.054688 140.257812 475.367188 140.257812 C 473.679688 140.257812 471.992188 140.296875 470.308594 140.378906 C 468.625 140.457031 466.941406 140.578125 465.261719 140.738281 C 463.582031 140.898438 461.910156 141.097656 460.238281 141.339844 C 458.570312 141.578125 456.90625 141.859375 455.25 142.175781 C 453.59375 142.496094 451.945312 142.855469 450.308594 143.253906 C 448.667969 143.648438 447.039062 144.085938 445.421875 144.5625 C 443.800781 145.035156 442.195312 145.550781 440.601562 146.101562 C 439.007812 146.652344 437.425781 147.242188 435.859375 147.871094 C 434.292969 148.496094 432.746094 149.160156 431.210938 149.859375 C 429.675781 150.5625 428.160156 151.296875 426.660156 152.070312 C 425.160156 152.84375 423.679688 153.652344 422.21875 154.496094 C 420.757812 155.339844 419.316406 156.214844 417.898438 157.128906 C 416.480469 158.039062 415.082031 158.984375 413.707031 159.960938 C 412.335938 160.941406 410.984375 161.953125 409.660156 162.992188 C 408.332031 164.035156 407.03125 165.109375 405.757812 166.214844 C 404.480469 167.320312 403.234375 168.453125 402.011719 169.617188 L 366.375 205.246094 C 365.820312 205.828125 365.328125 206.460938 364.894531 207.136719 C 364.464844 207.816406 364.101562 208.53125 363.808594 209.277344 C 363.515625 210.027344 363.296875 210.796875 363.152344 211.585938 C 363.007812 212.378906 362.941406 213.175781 362.953125 213.980469 C 362.960938 214.78125 363.050781 215.578125 363.214844 216.363281 C 363.378906 217.152344 363.617188 217.914062 363.929688 218.65625 C 364.242188 219.398438 364.621094 220.101562 365.070312 220.769531 C 365.519531 221.433594 366.027344 222.054688 366.59375 222.621094 C 367.164062 223.191406 367.78125 223.699219 368.445312 224.148438 C 369.113281 224.597656 369.816406 224.976562 370.558594 225.289062 C 371.296875 225.601562 372.0625 225.839844 372.847656 226.007812 C 373.636719 226.171875 374.429688 226.257812 375.234375 226.269531 C 376.039062 226.28125 376.835938 226.214844 377.625 226.070312 C 378.417969 225.925781 379.1875 225.707031 379.9375 225.414062 C 380.683594 225.121094 381.398438 224.761719 382.078125 224.328125 C 382.753906 223.898438 383.386719 223.40625 383.96875 222.851562 L 419.609375 187.222656 C 420.523438 186.3125 421.457031 185.425781 422.414062 184.558594 C 423.367188 183.695312 424.347656 182.855469 425.34375 182.039062 C 426.339844 181.222656 427.359375 180.433594 428.394531 179.667969 C 429.429688 178.898438 430.484375 178.160156 431.558594 177.445312 C 432.632812 176.730469 433.722656 176.042969 434.828125 175.382812 C 435.933594 174.71875 437.054688 174.085938 438.191406 173.480469 C 439.332031 172.875 440.484375 172.296875 441.648438 171.746094 C 442.8125 171.199219 443.992188 170.675781 445.183594 170.183594 C 446.375 169.695312 447.578125 169.230469 448.792969 168.796875 C 450.007812 168.367188 451.230469 167.964844 452.464844 167.589844 C 453.699219 167.21875 454.941406 166.875 456.191406 166.5625 C 457.441406 166.25 458.699219 165.96875 459.964844 165.71875 C 461.226562 165.46875 462.496094 165.25 463.773438 165.0625 C 465.046875 164.875 466.328125 164.71875 467.609375 164.59375 C 468.894531 164.46875 470.179688 164.375 471.464844 164.3125 C 472.753906 164.25 474.042969 164.21875 475.328125 164.222656 C 476.617188 164.222656 477.90625 164.253906 479.195312 164.320312 C 480.480469 164.382812 481.765625 164.480469 483.050781 164.605469 C 484.332031 164.734375 485.609375 164.894531 486.886719 165.082031 C 488.160156 165.273438 489.429688 165.492188 490.695312 165.746094 C 491.957031 166 493.214844 166.28125 494.464844 166.59375 C 495.714844 166.910156 496.957031 167.253906 498.191406 167.628906 C 499.421875 168.003906 500.648438 168.40625 501.859375 168.84375 C 503.074219 169.277344 504.273438 169.742188 505.464844 170.234375 C 506.65625 170.730469 507.835938 171.25 509 171.804688 C 510.164062 172.355469 511.316406 172.933594 512.453125 173.542969 C 513.589844 174.148438 514.707031 174.785156 515.8125 175.449219 C 516.917969 176.113281 518.007812 176.800781 519.078125 177.515625 C 520.152344 178.234375 521.203125 178.976562 522.238281 179.742188 C 523.273438 180.511719 524.289062 181.304688 525.285156 182.121094 C 526.28125 182.941406 527.257812 183.78125 528.214844 184.648438 C 529.167969 185.511719 530.101562 186.402344 531.011719 187.3125 C 531.925781 188.226562 532.8125 189.15625 533.679688 190.113281 C 534.542969 191.066406 535.386719 192.042969 536.203125 193.039062 C 537.023438 194.035156 537.816406 195.050781 538.582031 196.085938 C 539.351562 197.121094 540.09375 198.175781 540.808594 199.246094 C 541.523438 200.320312 542.214844 201.40625 542.878906 202.511719 C 543.539062 203.617188 544.175781 204.738281 544.785156 205.875 C 545.390625 207.011719 545.972656 208.164062 546.523438 209.328125 C 547.074219 210.492188 547.597656 211.671875 548.089844 212.859375 C 548.585938 214.050781 549.050781 215.253906 549.484375 216.464844 C 549.917969 217.679688 550.324219 218.902344 550.699219 220.136719 C 551.074219 221.371094 551.417969 222.613281 551.730469 223.863281 C 552.046875 225.113281 552.328125 226.367188 552.582031 227.632812 C 552.832031 228.898438 553.054688 230.167969 553.242188 231.441406 C 553.433594 232.714844 553.59375 233.996094 553.71875 235.277344 C 553.847656 236.558594 553.941406 237.84375 554.007812 239.132812 C 554.070312 240.417969 554.105469 241.707031 554.105469 242.996094 C 554.105469 244.285156 554.074219 245.574219 554.011719 246.859375 C 553.953125 248.148438 553.859375 249.433594 553.734375 250.714844 C 553.605469 252 553.449219 253.277344 553.261719 254.554688 C 553.074219 255.828125 552.855469 257.097656 552.605469 258.363281 C 552.355469 259.628906 552.074219 260.882812 551.761719 262.136719 C 551.453125 263.386719 551.109375 264.628906 550.734375 265.863281 C 550.363281 267.097656 549.960938 268.320312 549.527344 269.535156 C 549.09375 270.75 548.632812 271.949219 548.140625 273.140625 C 547.648438 274.332031 547.128906 275.511719 546.578125 276.679688 C 546.03125 277.84375 545.453125 278.996094 544.84375 280.132812 C 544.238281 281.269531 543.605469 282.394531 542.945312 283.5 C 542.285156 284.605469 541.597656 285.695312 540.882812 286.769531 C 540.167969 287.839844 539.425781 288.894531 538.660156 289.933594 C 537.894531 290.96875 537.101562 291.984375 536.285156 292.984375 C 535.46875 293.980469 534.628906 294.957031 533.765625 295.914062 C 532.902344 296.871094 532.015625 297.804688 531.105469 298.71875 L 440.730469 389.101562 C 439.820312 390.011719 438.882812 390.898438 437.925781 391.765625 C 436.96875 392.628906 435.992188 393.46875 434.996094 394.289062 C 433.996094 395.105469 432.980469 395.898438 431.941406 396.664062 C 430.90625 397.433594 429.851562 398.171875 428.777344 398.890625 C 427.703125 399.605469 426.613281 400.292969 425.507812 400.957031 C 424.398438 401.617188 423.277344 402.253906 422.140625 402.859375 C 421 403.46875 419.847656 404.046875 418.683594 404.597656 C 417.515625 405.148438 416.335938 405.667969 415.144531 406.160156 C 413.953125 406.65625 412.75 407.117188 411.535156 407.550781 C 410.320312 407.984375 409.09375 408.390625 407.859375 408.761719 C 406.625 409.136719 405.382812 409.480469 404.132812 409.792969 C 402.878906 410.105469 401.621094 410.390625 400.355469 410.640625 C 399.089844 410.890625 397.820312 411.113281 396.542969 411.300781 C 395.269531 411.488281 393.988281 411.648438 392.703125 411.773438 C 391.421875 411.898438 390.136719 411.992188 388.847656 412.058594 C 387.558594 412.121094 386.269531 412.152344 384.980469 412.152344 C 383.6875 412.152344 382.398438 412.121094 381.113281 412.058594 C 379.824219 411.992188 378.539062 411.898438 377.253906 411.773438 C 375.96875 411.648438 374.691406 411.488281 373.414062 411.300781 C 372.136719 411.113281 370.867188 410.890625 369.601562 410.640625 C 368.335938 410.390625 367.078125 410.105469 365.828125 409.792969 C 364.574219 409.480469 363.332031 409.136719 362.097656 408.761719 C 360.863281 408.390625 359.640625 407.984375 358.425781 407.550781 C 357.210938 407.117188 356.007812 406.65625 354.8125 406.160156 C 353.621094 405.667969 352.441406 405.148438 351.277344 404.597656 C 350.109375 404.046875 348.957031 403.46875 347.820312 402.859375 C 346.679688 402.253906 345.558594 401.617188 344.453125 400.957031 C 343.34375 400.292969 342.253906 399.605469 341.179688 398.890625 C 340.109375 398.171875 339.054688 397.433594 338.015625 396.664062 C 336.980469 395.898438 335.960938 395.105469 334.964844 394.289062 C 333.964844 393.46875 332.988281 392.628906 332.03125 391.765625 C 331.074219 390.898438 330.140625 390.011719 329.226562 389.101562 C 325.378906 385.257812 321.960938 381.066406 318.96875 376.527344 C 315.972656 371.984375 313.46875 367.191406 311.453125 362.140625 C 311.144531 361.382812 310.769531 360.664062 310.320312 359.980469 C 309.875 359.296875 309.363281 358.664062 308.792969 358.082031 C 308.21875 357.5 307.59375 356.976562 306.921875 356.515625 C 306.246094 356.058594 305.53125 355.667969 304.78125 355.347656 C 304.027344 355.027344 303.253906 354.785156 302.453125 354.617188 C 301.65625 354.449219 300.847656 354.363281 300.03125 354.355469 C 299.210938 354.347656 298.402344 354.417969 297.601562 354.570312 C 296.796875 354.722656 296.015625 354.949219 295.257812 355.253906 C 294.5 355.558594 293.78125 355.933594 293.097656 356.382812 C 292.414062 356.828125 291.78125 357.339844 291.195312 357.910156 C 290.613281 358.480469 290.089844 359.105469 289.628906 359.777344 C 289.167969 360.453125 288.777344 361.164062 288.457031 361.917969 C 288.136719 362.667969 287.890625 363.441406 287.722656 364.242188 C 287.554688 365.042969 287.46875 365.851562 287.457031 366.667969 C 287.449219 367.484375 287.519531 368.292969 287.667969 369.097656 C 287.820312 369.898438 288.046875 370.679688 288.351562 371.4375 C 290.992188 378.046875 294.273438 384.320312 298.191406 390.257812 C 302.109375 396.199219 306.585938 401.683594 311.621094 406.710938 C 312.84375 407.875 314.09375 409.007812 315.367188 410.109375 C 316.644531 411.210938 317.945312 412.28125 319.273438 413.324219 C 320.597656 414.363281 321.949219 415.375 323.324219 416.347656 C 324.699219 417.324219 326.097656 418.269531 327.515625 419.179688 C 328.9375 420.089844 330.375 420.964844 331.839844 421.808594 C 333.300781 422.648438 334.78125 423.457031 336.28125 424.226562 C 337.777344 424.996094 339.296875 425.734375 340.832031 426.433594 C 342.363281 427.132812 343.914062 427.792969 345.480469 428.417969 C 347.046875 429.046875 348.628906 429.632812 350.222656 430.183594 C 351.816406 430.734375 353.421875 431.246094 355.039062 431.722656 C 356.65625 432.195312 358.285156 432.628906 359.925781 433.027344 C 361.5625 433.425781 363.210938 433.78125 364.867188 434.101562 C 366.523438 434.417969 368.1875 434.699219 369.855469 434.9375 C 371.523438 435.175781 373.199219 435.375 374.878906 435.535156 C 376.554688 435.695312 378.238281 435.816406 379.921875 435.898438 C 381.605469 435.976562 383.292969 436.015625 384.976562 436.015625 C 386.664062 436.015625 388.351562 435.976562 390.035156 435.898438 C 391.71875 435.816406 393.402344 435.695312 395.078125 435.535156 C 396.757812 435.375 398.433594 435.175781 400.101562 434.9375 C 401.769531 434.699219 403.433594 434.417969 405.089844 434.101562 C 406.746094 433.78125 408.390625 433.425781 410.03125 433.027344 C 411.671875 432.628906 413.300781 432.195312 414.917969 431.722656 C 416.535156 431.246094 418.140625 430.734375 419.734375 430.183594 C 421.328125 429.632812 422.910156 429.046875 424.476562 428.417969 C 426.042969 427.792969 427.589844 427.132812 429.125 426.433594 C 430.660156 425.734375 432.179688 424.996094 433.675781 424.226562 C 435.175781 423.457031 436.65625 422.648438 438.117188 421.808594 C 439.578125 420.964844 441.019531 420.089844 442.441406 419.179688 C 443.859375 418.269531 445.257812 417.324219 446.632812 416.347656 C 448.007812 415.375 449.355469 414.363281 450.683594 413.324219 C 452.011719 412.28125 453.3125 411.210938 454.589844 410.109375 C 455.863281 409.007812 457.113281 407.875 458.335938 406.710938 L 548.710938 316.328125 C 551.101562 313.917969 553.371094 311.398438 555.515625 308.765625 C 557.65625 306.132812 559.667969 303.402344 561.542969 300.570312 C 563.417969 297.738281 565.148438 294.824219 566.734375 291.820312 C 568.324219 288.820312 569.761719 285.75 571.046875 282.605469 C 572.332031 279.464844 573.457031 276.265625 574.429688 273.011719 C 575.398438 269.757812 576.207031 266.464844 576.851562 263.132812 C 577.5 259.796875 577.980469 256.441406 578.296875 253.058594 C 578.609375 249.679688 578.761719 246.292969 578.742188 242.898438 Z M 578.742188 242.898438 " fill-opacity="1" fill-rule="nonzero"/><path fill="#192e59" d="M 139.660156 475.367188 C 139.640625 478.757812 139.789062 482.140625 140.105469 485.515625 C 140.417969 488.890625 140.898438 492.246094 141.542969 495.574219 C 142.1875 498.902344 142.992188 502.191406 143.960938 505.441406 C 144.925781 508.691406 146.050781 511.886719 147.332031 515.023438 C 148.617188 518.164062 150.046875 521.230469 151.632812 524.230469 C 153.214844 527.226562 154.941406 530.140625 156.8125 532.96875 C 158.683594 535.796875 160.6875 538.527344 162.828125 541.160156 C 164.964844 543.789062 167.230469 546.308594 169.617188 548.71875 C 170.824219 549.90625 172.058594 551.0625 173.324219 552.1875 C 174.589844 553.316406 175.878906 554.410156 177.195312 555.476562 C 178.515625 556.539062 179.855469 557.570312 181.226562 558.570312 C 182.59375 559.570312 183.984375 560.535156 185.398438 561.464844 C 186.8125 562.398438 188.25 563.292969 189.707031 564.15625 C 191.164062 565.015625 192.640625 565.84375 194.140625 566.632812 C 195.636719 567.421875 197.15625 568.175781 198.691406 568.894531 C 200.222656 569.609375 201.773438 570.289062 203.34375 570.929688 C 204.910156 571.570312 206.492188 572.171875 208.089844 572.738281 C 209.6875 573.300781 211.296875 573.828125 212.917969 574.3125 C 214.539062 574.800781 216.171875 575.246094 217.816406 575.652344 C 219.460938 576.0625 221.113281 576.425781 222.777344 576.753906 C 224.4375 577.082031 226.105469 577.367188 227.78125 577.613281 C 229.457031 577.859375 231.140625 578.0625 232.824219 578.226562 C 234.511719 578.390625 236.199219 578.515625 237.890625 578.597656 C 239.582031 578.679688 241.273438 578.71875 242.96875 578.71875 C 244.664062 578.71875 246.355469 578.679688 248.046875 578.597656 C 249.738281 578.515625 251.425781 578.390625 253.113281 578.226562 C 254.796875 578.0625 256.480469 577.859375 258.15625 577.613281 C 259.832031 577.367188 261.5 577.082031 263.160156 576.753906 C 264.824219 576.425781 266.476562 576.0625 268.121094 575.652344 C 269.761719 575.246094 271.398438 574.800781 273.019531 574.3125 C 274.640625 573.828125 276.25 573.300781 277.847656 572.738281 C 279.445312 572.171875 281.027344 571.570312 282.59375 570.929688 C 284.164062 570.289062 285.714844 569.609375 287.246094 568.894531 C 288.78125 568.175781 290.300781 567.421875 291.796875 566.632812 C 293.296875 565.84375 294.773438 565.015625 296.230469 564.15625 C 297.6875 563.292969 299.125 562.398438 300.539062 561.464844 C 301.953125 560.535156 303.34375 559.570312 304.710938 558.570312 C 306.082031 557.570312 307.421875 556.539062 308.742188 555.476562 C 310.058594 554.410156 311.347656 553.316406 312.613281 552.1875 C 313.878906 551.0625 315.113281 549.90625 316.320312 548.71875 L 352.089844 512.957031 C 352.644531 512.375 353.132812 511.742188 353.5625 511.066406 C 353.992188 510.386719 354.355469 509.675781 354.644531 508.925781 C 354.9375 508.179688 355.15625 507.410156 355.296875 506.617188 C 355.441406 505.828125 355.507812 505.03125 355.496094 504.230469 C 355.484375 503.425781 355.398438 502.632812 355.234375 501.847656 C 355.070312 501.0625 354.832031 500.296875 354.519531 499.558594 C 354.207031 498.820312 353.824219 498.117188 353.378906 497.449219 C 352.929688 496.785156 352.421875 496.167969 351.855469 495.597656 C 351.285156 495.03125 350.667969 494.523438 350.003906 494.074219 C 349.335938 493.625 348.636719 493.246094 347.894531 492.933594 C 347.15625 492.621094 346.394531 492.382812 345.605469 492.214844 C 344.820312 492.050781 344.027344 491.960938 343.222656 491.953125 C 342.421875 491.941406 341.625 492.003906 340.835938 492.148438 C 340.046875 492.292969 339.277344 492.507812 338.527344 492.800781 C 337.78125 493.089844 337.066406 493.453125 336.386719 493.882812 C 335.710938 494.3125 335.078125 494.800781 334.496094 495.351562 L 298.726562 531.113281 C 297.8125 532.023438 296.878906 532.910156 295.921875 533.777344 C 294.964844 534.640625 293.988281 535.480469 292.992188 536.296875 C 291.992188 537.113281 290.976562 537.90625 289.941406 538.671875 C 288.902344 539.4375 287.851562 540.179688 286.777344 540.894531 C 285.703125 541.609375 284.613281 542.296875 283.507812 542.957031 C 282.402344 543.621094 281.28125 544.253906 280.140625 544.859375 C 279.003906 545.464844 277.851562 546.042969 276.6875 546.59375 C 275.519531 547.144531 274.34375 547.664062 273.148438 548.15625 C 271.957031 548.648438 270.757812 549.113281 269.542969 549.542969 C 268.328125 549.976562 267.101562 550.382812 265.871094 550.753906 C 264.636719 551.125 263.394531 551.46875 262.140625 551.78125 C 260.890625 552.09375 259.632812 552.375 258.371094 552.625 C 257.105469 552.875 255.835938 553.09375 254.558594 553.28125 C 253.285156 553.472656 252.003906 553.628906 250.722656 553.753906 C 249.4375 553.878906 248.152344 553.972656 246.867188 554.035156 C 245.578125 554.097656 244.289062 554.128906 243 554.125 C 241.710938 554.125 240.421875 554.09375 239.136719 554.027344 C 237.847656 553.964844 236.5625 553.867188 235.28125 553.742188 C 233.996094 553.613281 232.71875 553.457031 231.445312 553.265625 C 230.167969 553.078125 228.898438 552.855469 227.636719 552.601562 C 226.371094 552.351562 225.113281 552.066406 223.863281 551.753906 C 222.613281 551.441406 221.371094 551.097656 220.136719 550.722656 C 218.902344 550.347656 217.679688 549.941406 216.46875 549.507812 C 215.253906 549.074219 214.050781 548.609375 212.859375 548.113281 C 211.667969 547.621094 210.492188 547.097656 209.328125 546.546875 C 208.160156 545.996094 207.011719 545.414062 205.875 544.808594 C 204.738281 544.199219 203.617188 543.5625 202.511719 542.902344 C 201.40625 542.238281 200.316406 541.546875 199.246094 540.832031 C 198.171875 540.117188 197.117188 539.371094 196.082031 538.605469 C 195.046875 537.835938 194.03125 537.042969 193.035156 536.226562 C 192.039062 535.40625 191.0625 534.566406 190.109375 533.699219 C 189.152344 532.835938 188.21875 531.945312 187.308594 531.035156 C 186.398438 530.121094 185.507812 529.191406 184.644531 528.234375 C 183.777344 527.28125 182.933594 526.304688 182.117188 525.308594 C 181.300781 524.3125 180.507812 523.292969 179.738281 522.257812 C 178.96875 521.222656 178.226562 520.171875 177.511719 519.097656 C 176.796875 518.027344 176.105469 516.9375 175.441406 515.832031 C 174.78125 514.726562 174.144531 513.605469 173.535156 512.46875 C 172.929688 511.332031 172.347656 510.183594 171.796875 509.015625 C 171.246094 507.851562 170.722656 506.671875 170.230469 505.484375 C 169.734375 504.292969 169.269531 503.089844 168.835938 501.875 C 168.402344 500.664062 167.996094 499.4375 167.621094 498.207031 C 167.246094 496.972656 166.902344 495.730469 166.589844 494.480469 C 166.273438 493.230469 165.992188 491.972656 165.738281 490.707031 C 165.488281 489.445312 165.265625 488.175781 165.078125 486.898438 C 164.886719 485.625 164.726562 484.34375 164.601562 483.0625 C 164.472656 481.78125 164.378906 480.496094 164.316406 479.207031 C 164.25 477.917969 164.21875 476.632812 164.21875 475.34375 C 164.214844 474.054688 164.246094 472.765625 164.308594 471.476562 C 164.371094 470.1875 164.464844 468.902344 164.589844 467.621094 C 164.714844 466.339844 164.871094 465.058594 165.058594 463.785156 C 165.25 462.507812 165.46875 461.238281 165.71875 459.972656 C 165.96875 458.710938 166.25 457.453125 166.5625 456.199219 C 166.875 454.949219 167.214844 453.707031 167.589844 452.472656 C 167.960938 451.238281 168.367188 450.015625 168.796875 448.800781 C 169.230469 447.585938 169.695312 446.382812 170.1875 445.191406 C 170.679688 444 171.199219 442.824219 171.75 441.65625 C 172.300781 440.492188 172.878906 439.339844 173.484375 438.203125 C 174.089844 437.0625 174.722656 435.941406 175.386719 434.835938 C 176.046875 433.730469 176.734375 432.640625 177.449219 431.566406 C 178.164062 430.492188 178.90625 429.4375 179.671875 428.402344 C 180.4375 427.367188 181.230469 426.347656 182.046875 425.351562 C 182.863281 424.355469 183.703125 423.378906 184.566406 422.421875 C 185.433594 421.464844 186.320312 420.53125 187.230469 419.617188 L 277.601562 329.234375 C 278.757812 328.085938 279.949219 326.976562 281.171875 325.902344 C 282.394531 324.828125 283.648438 323.792969 284.9375 322.796875 C 286.226562 321.796875 287.542969 320.84375 288.890625 319.925781 C 290.234375 319.011719 291.609375 318.136719 293.007812 317.308594 C 294.410156 316.476562 295.835938 315.691406 297.285156 314.949219 C 298.734375 314.207031 300.203125 313.507812 301.695312 312.855469 C 303.1875 312.203125 304.699219 311.597656 306.226562 311.039062 C 307.757812 310.480469 309.304688 309.972656 310.863281 309.507812 C 312.425781 309.046875 314 308.632812 315.585938 308.265625 C 317.171875 307.898438 318.769531 307.582031 320.375 307.316406 C 321.980469 307.046875 323.59375 306.832031 325.214844 306.664062 C 326.832031 306.496094 328.457031 306.378906 330.082031 306.3125 C 331.710938 306.242188 333.335938 306.226562 334.964844 306.257812 C 336.59375 306.292969 338.21875 306.375 339.839844 306.507812 C 341.464844 306.644531 343.082031 306.828125 344.691406 307.058594 C 346.304688 307.292969 347.90625 307.578125 349.5 307.910156 C 351.09375 308.242188 352.675781 308.621094 354.246094 309.050781 C 355.816406 309.484375 357.375 309.960938 358.914062 310.488281 C 360.457031 311.011719 361.980469 311.585938 363.484375 312.207031 C 364.988281 312.828125 366.476562 313.492188 367.9375 314.203125 C 369.402344 314.917969 370.84375 315.671875 372.261719 316.472656 C 373.679688 317.273438 375.070312 318.117188 376.4375 319.007812 C 377.800781 319.894531 379.140625 320.820312 380.449219 321.789062 C 381.753906 322.761719 383.03125 323.769531 384.277344 324.816406 C 385.523438 325.867188 386.738281 326.953125 387.914062 328.074219 C 389.09375 329.199219 390.238281 330.355469 391.34375 331.550781 C 392.453125 332.742188 393.523438 333.972656 394.554688 335.230469 C 395.585938 336.492188 396.578125 337.78125 397.527344 339.101562 C 398.480469 340.421875 399.390625 341.773438 400.257812 343.148438 C 401.125 344.527344 401.953125 345.929688 402.734375 347.359375 C 403.515625 348.785156 404.253906 350.238281 404.945312 351.710938 C 405.636719 353.183594 406.285156 354.679688 406.882812 356.191406 C 407.1875 356.953125 407.5625 357.675781 408.011719 358.359375 C 408.457031 359.042969 408.96875 359.679688 409.539062 360.261719 C 410.113281 360.847656 410.734375 361.371094 411.410156 361.832031 C 412.085938 362.292969 412.800781 362.6875 413.550781 363.007812 C 414.304688 363.328125 415.082031 363.574219 415.882812 363.742188 C 416.683594 363.910156 417.492188 363.996094 418.308594 364.003906 C 419.125 364.011719 419.9375 363.941406 420.742188 363.789062 C 421.546875 363.640625 422.328125 363.410156 423.085938 363.105469 C 423.84375 362.800781 424.566406 362.421875 425.25 361.976562 C 425.933594 361.527344 426.570312 361.019531 427.152344 360.445312 C 427.738281 359.871094 428.261719 359.25 428.722656 358.574219 C 429.183594 357.898438 429.574219 357.183594 429.894531 356.429688 C 430.214844 355.679688 430.457031 354.902344 430.625 354.101562 C 430.792969 353.300781 430.878906 352.492188 430.886719 351.671875 C 430.894531 350.855469 430.824219 350.042969 430.671875 349.242188 C 430.519531 348.4375 430.289062 347.65625 429.984375 346.898438 C 429.191406 344.910156 428.339844 342.945312 427.429688 341.007812 C 426.515625 339.074219 425.546875 337.167969 424.515625 335.289062 C 423.484375 333.414062 422.398438 331.570312 421.253906 329.761719 C 420.113281 327.953125 418.914062 326.183594 417.660156 324.445312 C 416.40625 322.710938 415.101562 321.015625 413.742188 319.363281 C 412.386719 317.707031 410.980469 316.097656 409.519531 314.527344 C 408.0625 312.960938 406.558594 311.441406 405.007812 309.964844 C 403.457031 308.492188 401.863281 307.066406 400.222656 305.6875 C 398.585938 304.3125 396.902344 302.988281 395.183594 301.714844 C 393.460938 300.445312 391.703125 299.226562 389.90625 298.0625 C 388.113281 296.898438 386.28125 295.789062 384.417969 294.738281 C 382.550781 293.6875 380.65625 292.695312 378.730469 291.761719 C 376.804688 290.828125 374.851562 289.953125 372.871094 289.140625 C 370.894531 288.328125 368.890625 287.578125 366.863281 286.886719 C 364.839844 286.199219 362.792969 285.570312 360.726562 285.007812 C 358.664062 284.445312 356.582031 283.945312 354.488281 283.511719 C 352.390625 283.074219 350.285156 282.707031 348.164062 282.402344 C 346.046875 282.097656 343.921875 281.855469 341.789062 281.683594 C 339.65625 281.507812 337.519531 281.402344 335.378906 281.359375 C 333.238281 281.320312 331.097656 281.34375 328.960938 281.433594 C 326.824219 281.523438 324.6875 281.679688 322.558594 281.902344 C 320.433594 282.125 318.3125 282.414062 316.199219 282.765625 C 314.089844 283.117188 311.992188 283.535156 309.90625 284.019531 C 307.820312 284.503906 305.753906 285.046875 303.703125 285.660156 C 301.652344 286.269531 299.621094 286.941406 297.609375 287.679688 C 295.601562 288.414062 293.613281 289.210938 291.652344 290.070312 C 289.695312 290.929688 287.761719 291.847656 285.855469 292.824219 C 283.953125 293.800781 282.082031 294.835938 280.242188 295.929688 C 278.402344 297.023438 276.597656 298.171875 274.828125 299.375 C 273.058594 300.582031 271.328125 301.839844 269.636719 303.152344 C 267.945312 304.460938 266.296875 305.824219 264.6875 307.238281 C 263.082031 308.652344 261.519531 310.113281 260.003906 311.621094 L 169.628906 402.007812 C 167.242188 404.414062 164.980469 406.933594 162.839844 409.566406 C 160.699219 412.199219 158.695312 414.925781 156.824219 417.757812 C 154.953125 420.585938 153.226562 423.496094 151.640625 426.496094 C 150.058594 429.496094 148.625 432.5625 147.339844 435.703125 C 146.058594 438.84375 144.933594 442.035156 143.964844 445.285156 C 142.996094 448.535156 142.191406 451.824219 141.546875 455.15625 C 140.902344 458.484375 140.421875 461.835938 140.105469 465.214844 C 139.789062 468.589844 139.640625 471.972656 139.660156 475.367188 Z M 139.660156 475.367188 " fill-opacity="1" fill-rule="nonzero"/><path fill="#192e59" d="M 251.765625 234.171875 L 187.214844 169.621094 C 186.632812 169.058594 186.003906 168.558594 185.324219 168.121094 C 184.648438 167.683594 183.933594 167.3125 183.179688 167.015625 C 182.429688 166.714844 181.65625 166.488281 180.863281 166.339844 C 180.070312 166.191406 179.265625 166.121094 178.457031 166.128906 C 177.652344 166.132812 176.851562 166.21875 176.058594 166.382812 C 175.265625 166.546875 174.5 166.78125 173.753906 167.09375 C 173.007812 167.410156 172.300781 167.789062 171.628906 168.242188 C 170.957031 168.691406 170.335938 169.203125 169.761719 169.773438 C 169.191406 170.34375 168.679688 170.964844 168.230469 171.636719 C 167.78125 172.308594 167.398438 173.015625 167.085938 173.761719 C 166.773438 174.507812 166.535156 175.277344 166.371094 176.070312 C 166.210938 176.859375 166.125 177.660156 166.117188 178.46875 C 166.109375 179.277344 166.179688 180.078125 166.332031 180.875 C 166.480469 181.667969 166.703125 182.441406 167.003906 183.191406 C 167.304688 183.941406 167.671875 184.65625 168.113281 185.335938 C 168.550781 186.015625 169.050781 186.644531 169.613281 187.226562 L 234.171875 251.765625 C 234.753906 252.335938 235.386719 252.84375 236.070312 253.289062 C 236.75 253.734375 237.46875 254.109375 238.222656 254.417969 C 238.976562 254.722656 239.753906 254.957031 240.554688 255.113281 C 241.351562 255.269531 242.160156 255.347656 242.972656 255.347656 C 243.789062 255.347656 244.597656 255.269531 245.394531 255.113281 C 246.195312 254.957031 246.972656 254.722656 247.726562 254.417969 C 248.480469 254.109375 249.199219 253.734375 249.878906 253.289062 C 250.5625 252.84375 251.195312 252.335938 251.777344 251.765625 C 252.355469 251.1875 252.871094 250.558594 253.324219 249.878906 C 253.777344 249.199219 254.15625 248.484375 254.46875 247.730469 C 254.78125 246.972656 255.015625 246.195312 255.175781 245.394531 C 255.335938 244.59375 255.414062 243.785156 255.414062 242.96875 C 255.414062 242.152344 255.332031 241.339844 255.171875 240.539062 C 255.011719 239.738281 254.777344 238.960938 254.464844 238.207031 C 254.152344 237.453125 253.769531 236.734375 253.316406 236.058594 C 252.859375 235.378906 252.34375 234.75 251.765625 234.171875 Z M 251.765625 234.171875 " fill-opacity="1" fill-rule="nonzero"/><g clip-path="url(#72e1a73fc8)"><path fill="#192e59" d="M 319.96875 178.417969 L 319.96875 126.773438 C 319.96875 125.953125 319.890625 125.144531 319.730469 124.34375 C 319.570312 123.539062 319.335938 122.761719 319.023438 122.007812 C 318.710938 121.253906 318.328125 120.535156 317.871094 119.855469 C 317.417969 119.175781 316.902344 118.546875 316.324219 117.96875 C 315.746094 117.390625 315.117188 116.875 314.4375 116.421875 C 313.757812 115.964844 313.039062 115.582031 312.285156 115.269531 C 311.53125 114.957031 310.75 114.71875 309.949219 114.5625 C 309.148438 114.402344 308.339844 114.320312 307.519531 114.320312 C 306.703125 114.320312 305.894531 114.402344 305.09375 114.5625 C 304.289062 114.71875 303.511719 114.957031 302.757812 115.269531 C 302 115.582031 301.285156 115.964844 300.605469 116.421875 C 299.925781 116.875 299.296875 117.390625 298.71875 117.96875 C 298.140625 118.546875 297.625 119.175781 297.167969 119.855469 C 296.714844 120.535156 296.332031 121.253906 296.019531 122.007812 C 295.707031 122.761719 295.46875 123.539062 295.308594 124.34375 C 295.152344 125.144531 295.070312 125.953125 295.070312 126.773438 L 295.070312 178.417969 C 295.070312 179.234375 295.152344 180.046875 295.308594 180.847656 C 295.46875 181.648438 295.707031 182.425781 296.019531 183.183594 C 296.332031 183.9375 296.714844 184.65625 297.167969 185.335938 C 297.625 186.015625 298.140625 186.644531 298.71875 187.222656 C 299.296875 187.800781 299.925781 188.316406 300.605469 188.769531 C 301.285156 189.222656 302 189.609375 302.757812 189.921875 C 303.511719 190.234375 304.289062 190.46875 305.09375 190.628906 C 305.894531 190.789062 306.703125 190.867188 307.519531 190.867188 C 308.339844 190.867188 309.148438 190.789062 309.949219 190.628906 C 310.75 190.46875 311.53125 190.234375 312.285156 189.921875 C 313.039062 189.609375 313.757812 189.222656 314.4375 188.769531 C 315.117188 188.316406 315.746094 187.800781 316.324219 187.222656 C 316.902344 186.644531 317.417969 186.015625 317.871094 185.335938 C 318.328125 184.65625 318.710938 183.9375 319.023438 183.183594 C 319.335938 182.425781 319.570312 181.648438 319.730469 180.847656 C 319.890625 180.046875 319.96875 179.234375 319.96875 178.417969 Z M 319.96875 178.417969 " fill-opacity="1" fill-rule="nonzero"/></g><g clip-path="url(#34eadc0889)"><path fill="#192e59" d="M 126.773438 319.96875 L 178.417969 319.96875 C 179.234375 319.96875 180.046875 319.890625 180.847656 319.730469 C 181.648438 319.570312 182.425781 319.335938 183.183594 319.023438 C 183.9375 318.710938 184.65625 318.328125 185.335938 317.871094 C 186.015625 317.417969 186.644531 316.902344 187.222656 316.324219 C 187.800781 315.746094 188.316406 315.117188 188.769531 314.4375 C 189.222656 313.757812 189.609375 313.039062 189.921875 312.285156 C 190.234375 311.53125 190.46875 310.75 190.628906 309.949219 C 190.789062 309.148438 190.867188 308.339844 190.867188 307.519531 C 190.867188 306.703125 190.789062 305.894531 190.628906 305.09375 C 190.46875 304.289062 190.234375 303.511719 189.921875 302.757812 C 189.609375 302 189.222656 301.285156 188.769531 300.605469 C 188.316406 299.925781 187.800781 299.296875 187.222656 298.71875 C 186.644531 298.140625 186.015625 297.625 185.335938 297.167969 C 184.65625 296.714844 183.9375 296.332031 183.183594 296.019531 C 182.425781 295.707031 181.648438 295.46875 180.847656 295.308594 C 180.046875 295.152344 179.234375 295.070312 178.417969 295.070312 L 126.773438 295.070312 C 125.953125 295.070312 125.144531 295.152344 124.34375 295.308594 C 123.539062 295.46875 122.761719 295.707031 122.007812 296.019531 C 121.253906 296.332031 120.535156 296.714844 119.855469 297.167969 C 119.175781 297.625 118.546875 298.140625 117.96875 298.71875 C 117.390625 299.296875 116.875 299.925781 116.421875 300.605469 C 115.964844 301.285156 115.582031 302 115.269531 302.757812 C 114.957031 303.511719 114.71875 304.289062 114.5625 305.09375 C 114.402344 305.894531 114.320312 306.703125 114.320312 307.519531 C 114.320312 308.339844 114.402344 309.148438 114.5625 309.949219 C 114.71875 310.75 114.957031 311.53125 115.269531 312.285156 C 115.582031 313.039062 115.964844 313.757812 116.421875 314.4375 C 116.875 315.117188 117.390625 315.746094 117.96875 316.324219 C 118.546875 316.902344 119.175781 317.417969 119.855469 317.871094 C 120.535156 318.328125 121.253906 318.710938 122.007812 319.023438 C 122.761719 319.335938 123.539062 319.570312 124.34375 319.730469 C 125.144531 319.890625 125.953125 319.96875 126.773438 319.96875 Z M 126.773438 319.96875 " fill-opacity="1" fill-rule="nonzero"/></g><path fill="#192e59" d="M 484.164062 466.566406 C 483.578125 466.023438 482.949219 465.539062 482.269531 465.117188 C 481.59375 464.691406 480.878906 464.339844 480.132812 464.050781 C 479.386719 463.765625 478.621094 463.554688 477.835938 463.414062 C 477.046875 463.277344 476.253906 463.214844 475.457031 463.226562 C 474.65625 463.242188 473.867188 463.332031 473.085938 463.5 C 472.304688 463.664062 471.546875 463.902344 470.808594 464.214844 C 470.074219 464.527344 469.375 464.90625 468.714844 465.355469 C 468.050781 465.800781 467.4375 466.308594 466.871094 466.871094 C 466.308594 467.4375 465.800781 468.050781 465.355469 468.714844 C 464.90625 469.375 464.527344 470.074219 464.214844 470.808594 C 463.902344 471.546875 463.664062 472.304688 463.5 473.085938 C 463.332031 473.867188 463.242188 474.65625 463.226562 475.457031 C 463.214844 476.253906 463.277344 477.046875 463.414062 477.835938 C 463.554688 478.621094 463.765625 479.386719 464.050781 480.132812 C 464.339844 480.878906 464.691406 481.59375 465.117188 482.269531 C 465.539062 482.949219 466.023438 483.578125 466.566406 484.164062 L 531.117188 548.714844 C 531.707031 549.273438 532.339844 549.773438 533.023438 550.210938 C 533.707031 550.652344 534.425781 551.023438 535.179688 551.324219 C 535.929688 551.625 536.707031 551.855469 537.503906 552.007812 C 538.300781 552.160156 539.105469 552.238281 539.917969 552.238281 C 540.726562 552.238281 541.53125 552.160156 542.328125 552.007812 C 543.125 551.855469 543.902344 551.625 544.65625 551.324219 C 545.410156 551.023438 546.128906 550.652344 546.808594 550.210938 C 547.492188 549.773438 548.128906 549.273438 548.714844 548.714844 C 549.292969 548.136719 549.808594 547.507812 550.261719 546.828125 C 550.714844 546.148438 551.097656 545.429688 551.410156 544.675781 C 551.722656 543.921875 551.957031 543.144531 552.117188 542.34375 C 552.277344 541.539062 552.355469 540.730469 552.355469 539.914062 C 552.355469 539.097656 552.277344 538.289062 552.117188 537.488281 C 551.957031 536.6875 551.722656 535.910156 551.410156 535.15625 C 551.097656 534.398438 550.714844 533.683594 550.261719 533.003906 C 549.808594 532.324219 549.292969 531.695312 548.714844 531.117188 Z M 484.164062 466.566406 " fill-opacity="1" fill-rule="nonzero"/><g clip-path="url(#252e18ae8b)"><path fill="#192e59" d="M 591.5625 398.363281 L 539.917969 398.363281 C 539.097656 398.363281 538.289062 398.445312 537.488281 398.605469 C 536.6875 398.761719 535.90625 399 535.152344 399.3125 C 534.398438 399.625 533.679688 400.007812 533 400.460938 C 532.320312 400.917969 531.691406 401.433594 531.113281 402.011719 C 530.535156 402.589844 530.019531 403.21875 529.566406 403.898438 C 529.109375 404.578125 528.726562 405.292969 528.414062 406.050781 C 528.101562 406.804688 527.867188 407.582031 527.707031 408.386719 C 527.546875 409.1875 527.46875 409.996094 527.46875 410.8125 C 527.46875 411.632812 527.546875 412.441406 527.707031 413.242188 C 527.867188 414.042969 528.101562 414.824219 528.414062 415.578125 C 528.726562 416.332031 529.109375 417.050781 529.566406 417.730469 C 530.019531 418.410156 530.535156 419.039062 531.113281 419.617188 C 531.691406 420.195312 532.320312 420.710938 533 421.164062 C 533.679688 421.621094 534.398438 422.003906 535.152344 422.316406 C 535.90625 422.628906 536.6875 422.863281 537.488281 423.023438 C 538.289062 423.183594 539.097656 423.265625 539.917969 423.265625 L 591.5625 423.265625 C 592.378906 423.265625 593.191406 423.183594 593.992188 423.023438 C 594.792969 422.863281 595.574219 422.628906 596.328125 422.316406 C 597.082031 422.003906 597.800781 421.621094 598.480469 421.164062 C 599.160156 420.710938 599.789062 420.195312 600.367188 419.617188 C 600.945312 419.039062 601.460938 418.410156 601.914062 417.730469 C 602.367188 417.050781 602.753906 416.332031 603.066406 415.578125 C 603.378906 414.824219 603.613281 414.042969 603.773438 413.242188 C 603.933594 412.441406 604.011719 411.632812 604.011719 410.8125 C 604.011719 409.996094 603.933594 409.1875 603.773438 408.386719 C 603.613281 407.582031 603.378906 406.804688 603.066406 406.050781 C 602.753906 405.292969 602.367188 404.578125 601.914062 403.898438 C 601.460938 403.21875 600.945312 402.589844 600.367188 402.011719 C 599.789062 401.433594 599.160156 400.917969 598.480469 400.460938 C 597.800781 400.007812 597.082031 399.625 596.328125 399.3125 C 595.574219 399 594.792969 398.761719 593.992188 398.605469 C 593.191406 398.445312 592.378906 398.363281 591.5625 398.363281 Z M 591.5625 398.363281 " fill-opacity="1" fill-rule="nonzero"/></g><g clip-path="url(#6fa26f646c)"><path fill="#192e59" d="M 423.265625 591.5625 L 423.265625 539.917969 C 423.265625 539.097656 423.183594 538.289062 423.023438 537.488281 C 422.863281 536.6875 422.628906 535.90625 422.316406 535.152344 C 422.003906 534.398438 421.621094 533.679688 421.164062 533 C 420.710938 532.320312 420.195312 531.691406 419.617188 531.113281 C 419.039062 530.535156 418.410156 530.019531 417.730469 529.566406 C 417.050781 529.109375 416.332031 528.726562 415.578125 528.414062 C 414.824219 528.101562 414.042969 527.867188 413.242188 527.707031 C 412.441406 527.546875 411.632812 527.46875 410.8125 527.46875 C 409.996094 527.46875 409.1875 527.546875 408.386719 527.707031 C 407.582031 527.867188 406.804688 528.101562 406.050781 528.414062 C 405.292969 528.726562 404.578125 529.109375 403.898438 529.566406 C 403.21875 530.019531 402.589844 530.535156 402.011719 531.113281 C 401.433594 531.691406 400.917969 532.320312 400.460938 533 C 400.007812 533.679688 399.625 534.398438 399.3125 535.152344 C 399 535.90625 398.761719 536.6875 398.605469 537.488281 C 398.445312 538.289062 398.363281 539.097656 398.363281 539.917969 L 398.363281 591.5625 C 398.363281 592.378906 398.445312 593.191406 398.605469 593.992188 C 398.761719 594.792969 399 595.574219 399.3125 596.328125 C 399.625 597.082031 400.007812 597.800781 400.460938 598.480469 C 400.917969 599.160156 401.433594 599.789062 402.011719 600.367188 C 402.589844 600.945312 403.21875 601.460938 403.898438 601.914062 C 404.578125 602.367188 405.292969 602.753906 406.050781 603.066406 C 406.804688 603.378906 407.582031 603.613281 408.386719 603.773438 C 409.1875 603.933594 409.996094 604.011719 410.8125 604.011719 C 411.632812 604.011719 412.441406 603.933594 413.242188 603.773438 C 414.042969 603.613281 414.824219 603.378906 415.578125 603.066406 C 416.332031 602.753906 417.050781 602.367188 417.730469 601.914062 C 418.410156 601.460938 419.039062 600.945312 419.617188 600.367188 C 420.195312 599.789062 420.710938 599.160156 421.164062 598.480469 C 421.621094 597.800781 422.003906 597.082031 422.316406 596.328125 C 422.628906 595.574219 422.863281 594.792969 423.023438 593.992188 C 423.183594 593.191406 423.265625 592.378906 423.265625 591.5625 Z M 423.265625 591.5625 " fill-opacity="1" fill-rule="nonzero"/></g></svg>