<svg xmlns="http://www.w3.org/2000/svg" xmlns:xlink="http://www.w3.org/1999/xlink" width="960" zoomAndPan="magnify" viewBox="0 0 720 719.999996" height="960" preserveAspectRatio="xMidYMid meet" version="1.0"><defs><clipPath id="bbac20a2fd"><path d="M 216 232.199219 L 456 232.199219 L 456 472 L 216 472 Z M 216 232.199219 " clip-rule="nonzero"/></clipPath><clipPath id="958b9bbfa3"><path d="M 364 309 L 504 309 L 504 487.949219 L 364 487.949219 Z M 364 309 " clip-rule="nonzero"/></clipPath></defs><g clip-path="url(#bbac20a2fd)"><path fill="#192e59" d="M 344.730469 457.589844 L 259.617188 457.589844 C 258.660156 457.589844 257.703125 457.542969 256.746094 457.445312 C 255.792969 457.351562 254.84375 457.210938 253.90625 457.023438 C 252.964844 456.835938 252.035156 456.601562 251.117188 456.324219 C 250.199219 456.042969 249.296875 455.71875 248.410156 455.351562 C 247.523438 454.984375 246.660156 454.574219 245.8125 454.121094 C 244.96875 453.671875 244.144531 453.175781 243.347656 452.644531 C 242.550781 452.109375 241.78125 451.539062 241.039062 450.933594 C 240.300781 450.324219 239.589844 449.679688 238.910156 449 C 238.230469 448.324219 237.589844 447.613281 236.980469 446.871094 C 236.371094 446.128906 235.800781 445.359375 235.265625 444.5625 C 234.734375 443.765625 234.242188 442.945312 233.789062 442.097656 C 233.335938 441.253906 232.925781 440.386719 232.558594 439.5 C 232.191406 438.617188 231.867188 437.714844 231.589844 436.796875 C 231.308594 435.878906 231.074219 434.949219 230.886719 434.007812 C 230.699219 433.066406 230.558594 432.121094 230.464844 431.164062 C 230.367188 430.210938 230.320312 429.253906 230.320312 428.296875 L 230.320312 412.003906 L 273.25 372.261719 C 273.773438 371.777344 274.359375 371.394531 275.011719 371.105469 C 275.660156 370.820312 276.339844 370.648438 277.050781 370.589844 C 277.757812 370.53125 278.457031 370.589844 279.144531 370.765625 C 279.835938 370.945312 280.476562 371.226562 281.070312 371.621094 L 315.394531 394.253906 C 316.046875 394.6875 316.75 395 317.503906 395.199219 C 318.261719 395.402344 319.027344 395.476562 319.808594 395.421875 C 320.585938 395.371094 321.339844 395.199219 322.0625 394.902344 C 322.78125 394.601562 323.4375 394.199219 324.027344 393.6875 L 376.089844 348.480469 C 376.402344 348.214844 376.734375 347.980469 377.089844 347.777344 C 377.445312 347.574219 377.816406 347.40625 378.203125 347.277344 C 378.589844 347.144531 378.988281 347.050781 379.390625 346.996094 C 379.796875 346.941406 380.203125 346.925781 380.613281 346.949219 C 381.019531 346.96875 381.421875 347.03125 381.820312 347.132812 C 382.214844 347.230469 382.601562 347.371094 382.96875 347.542969 C 383.339844 347.71875 383.691406 347.925781 384.019531 348.164062 C 384.351562 348.40625 384.65625 348.675781 384.933594 348.976562 L 398.660156 365.003906 C 398.964844 365.359375 399.304688 365.683594 399.671875 365.972656 C 400.042969 366.265625 400.4375 366.515625 400.855469 366.730469 C 401.273438 366.941406 401.710938 367.113281 402.164062 367.238281 C 402.617188 367.367188 403.074219 367.449219 403.542969 367.484375 C 404.011719 367.519531 404.480469 367.511719 404.945312 367.457031 C 405.414062 367.398438 405.871094 367.300781 406.316406 367.152344 C 406.765625 367.007812 407.191406 366.820312 407.601562 366.589844 C 408.011719 366.359375 408.394531 366.09375 408.753906 365.789062 C 409.109375 365.480469 409.433594 365.144531 409.726562 364.777344 C 410.015625 364.40625 410.265625 364.011719 410.480469 363.59375 C 410.695312 363.175781 410.863281 362.738281 410.992188 362.285156 C 411.117188 361.835938 411.199219 361.375 411.238281 360.90625 C 411.273438 360.4375 411.265625 359.96875 411.210938 359.503906 C 411.152344 359.035156 411.054688 358.578125 410.90625 358.132812 C 410.761719 357.683594 410.574219 357.257812 410.34375 356.847656 C 410.117188 356.4375 409.847656 356.054688 409.542969 355.695312 L 395.757812 339.585938 C 395.71875 339.542969 395.679688 339.496094 395.636719 339.453125 C 395.191406 338.957031 394.71875 338.480469 394.226562 338.027344 C 393.730469 337.578125 393.21875 337.148438 392.679688 336.75 C 392.144531 336.347656 391.59375 335.972656 391.019531 335.625 C 390.449219 335.273438 389.863281 334.957031 389.257812 334.664062 C 388.65625 334.375 388.039062 334.113281 387.410156 333.878906 C 386.785156 333.648438 386.144531 333.449219 385.5 333.28125 C 384.851562 333.109375 384.195312 332.972656 383.535156 332.867188 C 382.875 332.761719 382.210938 332.6875 381.542969 332.648438 C 380.871094 332.605469 380.203125 332.597656 379.535156 332.621094 C 378.867188 332.644531 378.199219 332.699219 377.535156 332.789062 C 376.871094 332.878906 376.214844 332.996094 375.5625 333.148438 C 374.910156 333.300781 374.269531 333.484375 373.632812 333.699219 C 373 333.914062 372.378906 334.160156 371.765625 334.4375 C 371.15625 334.710938 370.5625 335.015625 369.980469 335.347656 C 369.398438 335.679688 368.835938 336.042969 368.292969 336.429688 C 367.746094 336.816406 367.21875 337.230469 366.714844 337.667969 L 318.742188 379.3125 L 288.945312 359.667969 C 287.988281 359.035156 286.984375 358.484375 285.933594 358.019531 C 284.882812 357.554688 283.800781 357.175781 282.691406 356.890625 C 281.578125 356.605469 280.449219 356.414062 279.304688 356.316406 C 278.160156 356.21875 277.015625 356.21875 275.871094 356.3125 C 274.726562 356.40625 273.597656 356.59375 272.484375 356.875 C 271.371094 357.15625 270.289062 357.53125 269.238281 357.992188 C 268.1875 358.457031 267.179688 359.003906 266.222656 359.632812 C 265.261719 360.265625 264.359375 360.96875 263.519531 361.75 L 230.320312 392.507812 L 230.320312 275.90625 C 230.320312 274.945312 230.367188 273.988281 230.464844 273.035156 C 230.558594 272.082031 230.699219 271.132812 230.886719 270.191406 C 231.074219 269.25 231.308594 268.320312 231.589844 267.40625 C 231.867188 266.488281 232.191406 265.585938 232.558594 264.699219 C 232.925781 263.8125 233.335938 262.945312 233.789062 262.101562 C 234.242188 261.253906 234.734375 260.433594 235.265625 259.636719 C 235.800781 258.839844 236.371094 258.070312 236.980469 257.328125 C 237.589844 256.585938 238.230469 255.878906 238.910156 255.199219 C 239.589844 254.519531 240.300781 253.878906 241.039062 253.269531 C 241.78125 252.660156 242.550781 252.089844 243.347656 251.554688 C 244.144531 251.023438 244.96875 250.53125 245.8125 250.078125 C 246.660156 249.625 247.523438 249.214844 248.410156 248.847656 C 249.296875 248.480469 250.199219 248.15625 251.117188 247.878906 C 252.035156 247.597656 252.964844 247.367188 253.90625 247.179688 C 254.84375 246.988281 255.792969 246.847656 256.746094 246.753906 C 257.703125 246.660156 258.660156 246.609375 259.617188 246.609375 L 412.003906 246.609375 C 412.964844 246.609375 413.921875 246.660156 414.875 246.753906 C 415.828125 246.847656 416.777344 246.988281 417.71875 247.179688 C 418.65625 247.367188 419.585938 247.597656 420.503906 247.878906 C 421.421875 248.15625 422.324219 248.480469 423.210938 248.847656 C 424.097656 249.214844 424.960938 249.625 425.808594 250.078125 C 426.652344 250.53125 427.476562 251.023438 428.273438 251.554688 C 429.070312 252.089844 429.839844 252.660156 430.582031 253.269531 C 431.324219 253.878906 432.03125 254.519531 432.710938 255.199219 C 433.390625 255.878906 434.03125 256.585938 434.640625 257.328125 C 435.25 258.070312 435.820312 258.839844 436.355469 259.636719 C 436.886719 260.433594 437.378906 261.253906 437.832031 262.101562 C 438.285156 262.945312 438.695312 263.8125 439.0625 264.699219 C 439.429688 265.585938 439.753906 266.488281 440.035156 267.40625 C 440.3125 268.320312 440.546875 269.25 440.734375 270.191406 C 440.921875 271.132812 441.0625 272.082031 441.160156 273.035156 C 441.253906 273.988281 441.300781 274.945312 441.304688 275.90625 L 441.304688 296.75 C 441.304688 297.21875 441.347656 297.683594 441.441406 298.144531 C 441.53125 298.605469 441.667969 299.054688 441.847656 299.488281 C 442.027344 299.921875 442.25 300.335938 442.511719 300.726562 C 442.769531 301.117188 443.066406 301.480469 443.398438 301.8125 C 443.734375 302.144531 444.09375 302.441406 444.484375 302.703125 C 444.875 302.960938 445.289062 303.183594 445.722656 303.363281 C 446.15625 303.542969 446.605469 303.679688 447.066406 303.769531 C 447.527344 303.863281 447.992188 303.90625 448.460938 303.90625 C 448.933594 303.90625 449.398438 303.863281 449.859375 303.769531 C 450.320312 303.679688 450.769531 303.542969 451.203125 303.363281 C 451.636719 303.183594 452.050781 302.960938 452.441406 302.703125 C 452.832031 302.441406 453.191406 302.144531 453.523438 301.8125 C 453.859375 301.480469 454.152344 301.117188 454.414062 300.726562 C 454.675781 300.335938 454.898438 299.921875 455.078125 299.488281 C 455.257812 299.054688 455.394531 298.605469 455.484375 298.144531 C 455.574219 297.683594 455.621094 297.21875 455.621094 296.75 L 455.621094 275.90625 C 455.621094 274.476562 455.546875 273.054688 455.40625 271.632812 C 455.265625 270.210938 455.054688 268.800781 454.777344 267.398438 C 454.496094 266 454.148438 264.617188 453.734375 263.25 C 453.316406 261.882812 452.835938 260.539062 452.289062 259.222656 C 451.742188 257.902344 451.128906 256.613281 450.457031 255.355469 C 449.78125 254.09375 449.050781 252.871094 448.253906 251.683594 C 447.460938 250.5 446.613281 249.351562 445.707031 248.25 C 444.800781 247.144531 443.839844 246.089844 442.832031 245.078125 C 441.820312 244.070312 440.765625 243.109375 439.660156 242.207031 C 438.558594 241.300781 437.410156 240.449219 436.226562 239.65625 C 435.039062 238.863281 433.8125 238.128906 432.554688 237.453125 C 431.296875 236.78125 430.007812 236.171875 428.6875 235.625 C 427.367188 235.078125 426.027344 234.59375 424.660156 234.179688 C 423.292969 233.765625 421.910156 233.417969 420.511719 233.136719 C 419.109375 232.855469 417.699219 232.648438 416.277344 232.503906 C 414.855469 232.363281 413.433594 232.292969 412.003906 232.292969 L 259.617188 232.292969 C 258.191406 232.292969 256.765625 232.363281 255.34375 232.503906 C 253.921875 232.648438 252.511719 232.855469 251.113281 233.136719 C 249.710938 233.417969 248.328125 233.765625 246.960938 234.179688 C 245.597656 234.59375 244.253906 235.078125 242.933594 235.625 C 241.613281 236.171875 240.324219 236.78125 239.066406 237.453125 C 237.808594 238.128906 236.585938 238.863281 235.398438 239.65625 C 234.210938 240.449219 233.066406 241.300781 231.960938 242.207031 C 230.855469 243.109375 229.800781 244.070312 228.789062 245.078125 C 227.78125 246.089844 226.824219 247.144531 225.917969 248.25 C 225.011719 249.351562 224.160156 250.5 223.367188 251.683594 C 222.574219 252.871094 221.839844 254.09375 221.164062 255.355469 C 220.492188 256.613281 219.882812 257.902344 219.332031 259.222656 C 218.785156 260.539062 218.304688 261.882812 217.890625 263.25 C 217.472656 264.617188 217.125 266 216.847656 267.398438 C 216.566406 268.800781 216.355469 270.210938 216.214844 271.632812 C 216.074219 273.054688 216 274.476562 216 275.90625 L 216 428.296875 C 216 429.722656 216.074219 431.148438 216.214844 432.570312 C 216.355469 433.988281 216.566406 435.402344 216.847656 436.800781 C 217.125 438.203125 217.472656 439.585938 217.890625 440.949219 C 218.304688 442.316406 218.785156 443.660156 219.332031 444.980469 C 219.882812 446.296875 220.492188 447.585938 221.164062 448.847656 C 221.839844 450.105469 222.574219 451.328125 223.367188 452.515625 C 224.160156 453.703125 225.011719 454.847656 225.917969 455.953125 C 226.824219 457.054688 227.78125 458.113281 228.789062 459.121094 C 229.800781 460.132812 230.855469 461.089844 231.960938 461.996094 C 233.066406 462.902344 234.210938 463.75 235.398438 464.546875 C 236.585938 465.339844 237.808594 466.074219 239.066406 466.746094 C 240.324219 467.417969 241.613281 468.03125 242.933594 468.578125 C 244.253906 469.125 245.597656 469.605469 246.960938 470.019531 C 248.328125 470.4375 249.710938 470.785156 251.113281 471.0625 C 252.511719 471.34375 253.921875 471.554688 255.34375 471.695312 C 256.765625 471.835938 258.191406 471.90625 259.617188 471.910156 L 344.730469 471.910156 C 345.199219 471.910156 345.664062 471.863281 346.125 471.773438 C 346.585938 471.679688 347.035156 471.542969 347.46875 471.363281 C 347.902344 471.183594 348.316406 470.964844 348.707031 470.703125 C 349.097656 470.441406 349.460938 470.144531 349.792969 469.8125 C 350.125 469.480469 350.421875 469.117188 350.683594 468.726562 C 350.941406 468.335938 351.164062 467.925781 351.34375 467.488281 C 351.523438 467.054688 351.660156 466.609375 351.75 466.148438 C 351.84375 465.6875 351.886719 465.21875 351.886719 464.75 C 351.886719 464.28125 351.84375 463.8125 351.75 463.351562 C 351.660156 462.890625 351.523438 462.445312 351.34375 462.011719 C 351.164062 461.574219 350.941406 461.164062 350.683594 460.773438 C 350.421875 460.382812 350.125 460.019531 349.792969 459.6875 C 349.460938 459.355469 349.097656 459.058594 348.707031 458.796875 C 348.316406 458.535156 347.902344 458.316406 347.46875 458.136719 C 347.035156 457.957031 346.585938 457.820312 346.125 457.726562 C 345.664062 457.636719 345.199219 457.589844 344.730469 457.589844 Z M 344.730469 457.589844 " fill-opacity="1" fill-rule="nonzero"/></g><g clip-path="url(#958b9bbfa3)"><path fill="#192e59" d="M 493.085938 314.625 C 492.0625 313.878906 490.988281 313.207031 489.867188 312.613281 C 488.746094 312.019531 487.589844 311.507812 486.394531 311.078125 C 485.203125 310.652344 483.984375 310.308594 482.742188 310.054688 C 481.5 309.800781 480.242188 309.632812 478.976562 309.558594 C 477.710938 309.484375 476.445312 309.496094 475.183594 309.601562 C 473.917969 309.707031 472.667969 309.898438 471.429688 310.183594 C 470.195312 310.464844 468.984375 310.835938 467.800781 311.289062 C 466.617188 311.746094 465.472656 312.28125 464.363281 312.902344 C 460.988281 314.785156 458.164062 317.289062 455.894531 320.417969 L 443.273438 337.6875 L 421.503906 367.488281 L 369.269531 438.945312 C 368.46875 440.035156 368.015625 441.257812 367.910156 442.605469 L 365.011719 479.578125 C 364.988281 479.882812 364.984375 480.1875 365 480.488281 C 365.011719 480.792969 365.046875 481.09375 365.101562 481.394531 C 365.152344 481.695312 365.226562 481.988281 365.316406 482.28125 C 365.40625 482.570312 365.515625 482.851562 365.644531 483.128906 C 365.769531 483.40625 365.914062 483.671875 366.074219 483.929688 C 366.238281 484.1875 366.414062 484.4375 366.605469 484.671875 C 366.796875 484.90625 367.003906 485.128906 367.226562 485.339844 C 367.445312 485.546875 367.679688 485.742188 367.925781 485.921875 C 368.171875 486.101562 368.425781 486.265625 368.691406 486.410156 C 368.960938 486.558594 369.234375 486.6875 369.515625 486.800781 C 369.800781 486.910156 370.089844 487.003906 370.382812 487.078125 C 370.679688 487.152344 370.976562 487.210938 371.277344 487.246094 C 371.582031 487.285156 371.882812 487.300781 372.1875 487.300781 C 372.492188 487.296875 372.792969 487.277344 373.097656 487.238281 C 373.398438 487.195312 373.695312 487.136719 373.988281 487.058594 C 374.285156 486.980469 374.570312 486.886719 374.851562 486.769531 L 409.175781 472.777344 C 410.429688 472.265625 411.453125 471.464844 412.25 470.371094 L 459.644531 405.488281 L 473.617188 386.363281 L 498.855469 351.824219 C 500.527344 349.550781 501.800781 347.074219 502.679688 344.390625 C 503.554688 341.710938 503.992188 338.957031 503.988281 336.136719 C 503.984375 334.042969 503.742188 331.976562 503.253906 329.941406 C 502.765625 327.902344 502.046875 325.949219 501.101562 324.082031 C 500.152344 322.214844 499.003906 320.480469 497.648438 318.882812 C 496.296875 317.285156 494.773438 315.863281 493.085938 314.625 Z M 448.101562 397.054688 L 401.886719 460.269531 L 380.191406 469.128906 L 382.019531 445.757812 L 433.042969 375.925781 L 450.589844 351.914062 L 463.613281 361.433594 L 470.453125 366.429688 L 462.058594 377.921875 Z M 487.28125 343.378906 L 478.882812 354.867188 L 459.03125 340.355469 L 467.425781 328.867188 C 468.472656 327.417969 469.773438 326.253906 471.332031 325.382812 C 472.363281 324.804688 473.449219 324.386719 474.597656 324.121094 C 475.75 323.855469 476.910156 323.757812 478.089844 323.828125 C 479.265625 323.894531 480.410156 324.128906 481.519531 324.523438 C 482.628906 324.921875 483.660156 325.464844 484.617188 326.15625 C 485.269531 326.632812 485.871094 327.167969 486.417969 327.765625 C 486.96875 328.359375 487.453125 329.003906 487.875 329.695312 C 488.292969 330.386719 488.644531 331.113281 488.921875 331.871094 C 489.199219 332.632812 489.402344 333.414062 489.523438 334.214844 C 489.648438 335.011719 489.695312 335.816406 489.660156 336.625 C 489.625 337.433594 489.507812 338.234375 489.316406 339.019531 C 489.125 339.804688 488.855469 340.566406 488.515625 341.296875 C 488.171875 342.03125 487.761719 342.726562 487.28125 343.378906 Z M 487.28125 343.378906 " fill-opacity="1" fill-rule="nonzero"/></g><path fill="#192e59" d="M 276.054688 303.414062 C 276.054688 304.421875 276.101562 305.425781 276.203125 306.429688 C 276.300781 307.433594 276.449219 308.429688 276.644531 309.417969 C 276.84375 310.40625 277.085938 311.382812 277.378906 312.347656 C 277.671875 313.3125 278.011719 314.261719 278.398438 315.191406 C 278.785156 316.121094 279.214844 317.03125 279.691406 317.921875 C 280.164062 318.8125 280.683594 319.675781 281.242188 320.511719 C 281.804688 321.351562 282.402344 322.160156 283.042969 322.9375 C 283.683594 323.71875 284.359375 324.464844 285.070312 325.175781 C 285.785156 325.890625 286.53125 326.566406 287.308594 327.207031 C 288.089844 327.84375 288.898438 328.445312 289.734375 329.003906 C 290.574219 329.5625 291.4375 330.082031 292.328125 330.558594 C 293.214844 331.03125 294.125 331.460938 295.058594 331.847656 C 295.988281 332.234375 296.9375 332.574219 297.902344 332.867188 C 298.867188 333.160156 299.84375 333.402344 300.832031 333.597656 C 301.820312 333.796875 302.816406 333.945312 303.820312 334.042969 C 304.824219 334.140625 305.828125 334.191406 306.835938 334.191406 C 307.84375 334.191406 308.851562 334.140625 309.855469 334.042969 C 310.859375 333.941406 311.855469 333.796875 312.84375 333.597656 C 313.832031 333.402344 314.808594 333.15625 315.773438 332.863281 C 316.738281 332.570312 317.683594 332.230469 318.617188 331.847656 C 319.546875 331.460938 320.457031 331.03125 321.347656 330.554688 C 322.234375 330.078125 323.101562 329.5625 323.9375 329 C 324.777344 328.441406 325.585938 327.839844 326.363281 327.203125 C 327.144531 326.5625 327.890625 325.886719 328.601562 325.171875 C 329.316406 324.460938 329.992188 323.714844 330.628906 322.933594 C 331.269531 322.15625 331.871094 321.347656 332.429688 320.507812 C 332.988281 319.671875 333.507812 318.808594 333.984375 317.917969 C 334.457031 317.027344 334.886719 316.117188 335.273438 315.1875 C 335.660156 314.253906 336 313.308594 336.292969 312.34375 C 336.582031 311.378906 336.828125 310.402344 337.023438 309.414062 C 337.222656 308.425781 337.371094 307.429688 337.46875 306.425781 C 337.566406 305.421875 337.617188 304.414062 337.617188 303.40625 C 337.617188 302.398438 337.566406 301.394531 337.46875 300.390625 C 337.371094 299.386719 337.222656 298.390625 337.023438 297.402344 C 336.828125 296.414062 336.582031 295.4375 336.289062 294.472656 C 335.996094 293.507812 335.660156 292.558594 335.273438 291.628906 C 334.886719 290.695312 334.457031 289.785156 333.980469 288.898438 C 333.507812 288.007812 332.988281 287.144531 332.429688 286.308594 C 331.867188 285.46875 331.269531 284.660156 330.628906 283.878906 C 329.988281 283.101562 329.3125 282.355469 328.601562 281.644531 C 327.886719 280.929688 327.140625 280.253906 326.363281 279.613281 C 325.582031 278.976562 324.773438 278.375 323.9375 277.816406 C 323.097656 277.253906 322.234375 276.738281 321.34375 276.261719 C 320.457031 275.785156 319.546875 275.355469 318.613281 274.96875 C 317.683594 274.585938 316.734375 274.246094 315.769531 273.953125 C 314.804688 273.660156 313.828125 273.414062 312.839844 273.21875 C 311.851562 273.023438 310.855469 272.875 309.851562 272.777344 C 308.847656 272.675781 307.84375 272.628906 306.835938 272.628906 C 305.828125 272.628906 304.820312 272.679688 303.820312 272.777344 C 302.816406 272.878906 301.820312 273.027344 300.832031 273.226562 C 299.84375 273.421875 298.867188 273.667969 297.902344 273.960938 C 296.9375 274.253906 295.992188 274.59375 295.058594 274.980469 C 294.128906 275.367188 293.21875 275.796875 292.332031 276.273438 C 291.441406 276.75 290.578125 277.265625 289.742188 277.828125 C 288.902344 278.386719 288.09375 278.988281 287.316406 279.625 C 286.535156 280.265625 285.789062 280.941406 285.078125 281.65625 C 284.367188 282.367188 283.6875 283.113281 283.050781 283.890625 C 282.410156 284.671875 281.8125 285.480469 281.25 286.316406 C 280.691406 287.15625 280.171875 288.019531 279.695312 288.90625 C 279.222656 289.796875 278.789062 290.707031 278.40625 291.636719 C 278.019531 292.570312 277.679688 293.515625 277.386719 294.480469 C 277.09375 295.445312 276.847656 296.421875 276.648438 297.410156 C 276.453125 298.398438 276.304688 299.394531 276.203125 300.394531 C 276.105469 301.398438 276.054688 302.40625 276.054688 303.414062 Z M 323.296875 303.414062 C 323.296875 303.953125 323.269531 304.488281 323.21875 305.027344 C 323.164062 305.5625 323.085938 306.09375 322.980469 306.625 C 322.875 307.152344 322.746094 307.675781 322.585938 308.191406 C 322.429688 308.707031 322.25 309.214844 322.042969 309.710938 C 321.835938 310.210938 321.605469 310.695312 321.351562 311.171875 C 321.097656 311.648438 320.820312 312.109375 320.519531 312.558594 C 320.222656 313.007812 319.902344 313.4375 319.558594 313.855469 C 319.214844 314.273438 318.855469 314.671875 318.472656 315.050781 C 318.09375 315.433594 317.691406 315.792969 317.277344 316.136719 C 316.859375 316.480469 316.425781 316.800781 315.980469 317.097656 C 315.53125 317.398438 315.066406 317.675781 314.59375 317.929688 C 314.117188 318.183594 313.628906 318.414062 313.132812 318.621094 C 312.632812 318.824219 312.128906 319.007812 311.609375 319.164062 C 311.09375 319.320312 310.574219 319.449219 310.042969 319.554688 C 309.515625 319.660156 308.984375 319.738281 308.445312 319.792969 C 307.910156 319.84375 307.371094 319.871094 306.832031 319.871094 C 306.292969 319.871094 305.753906 319.84375 305.21875 319.792969 C 304.683594 319.738281 304.148438 319.660156 303.621094 319.554688 C 303.09375 319.449219 302.570312 319.320312 302.054688 319.160156 C 301.539062 319.003906 301.03125 318.824219 300.53125 318.617188 C 300.035156 318.410156 299.546875 318.179688 299.074219 317.925781 C 298.597656 317.671875 298.136719 317.394531 297.6875 317.097656 C 297.238281 316.796875 296.804688 316.476562 296.390625 316.132812 C 295.972656 315.792969 295.574219 315.429688 295.191406 315.046875 C 294.8125 314.667969 294.449219 314.269531 294.109375 313.851562 C 293.765625 313.433594 293.445312 313 293.144531 312.554688 C 292.847656 312.105469 292.570312 311.644531 292.316406 311.167969 C 292.0625 310.691406 291.832031 310.207031 291.625 309.707031 C 291.417969 309.210938 291.238281 308.703125 291.082031 308.1875 C 290.925781 307.671875 290.792969 307.148438 290.6875 306.621094 C 290.582031 306.089844 290.503906 305.558594 290.453125 305.019531 C 290.398438 304.484375 290.371094 303.945312 290.371094 303.40625 C 290.371094 302.867188 290.398438 302.332031 290.453125 301.792969 C 290.503906 301.257812 290.582031 300.726562 290.6875 300.195312 C 290.792969 299.667969 290.925781 299.144531 291.082031 298.628906 C 291.238281 298.113281 291.417969 297.605469 291.625 297.109375 C 291.832031 296.609375 292.0625 296.125 292.316406 295.648438 C 292.570312 295.171875 292.847656 294.710938 293.148438 294.261719 C 293.445312 293.8125 293.765625 293.382812 294.109375 292.964844 C 294.453125 292.546875 294.8125 292.148438 295.195312 291.765625 C 295.574219 291.386719 295.976562 291.023438 296.390625 290.683594 C 296.808594 290.339844 297.242188 290.019531 297.6875 289.71875 C 298.136719 289.421875 298.597656 289.144531 299.074219 288.890625 C 299.550781 288.636719 300.039062 288.40625 300.535156 288.199219 C 301.035156 287.992188 301.539062 287.8125 302.054688 287.65625 C 302.570312 287.5 303.09375 287.367188 303.625 287.261719 C 304.152344 287.15625 304.683594 287.078125 305.222656 287.027344 C 305.757812 286.972656 306.296875 286.945312 306.835938 286.945312 C 307.375 286.945312 307.910156 286.972656 308.449219 287.027344 C 308.984375 287.082031 309.515625 287.160156 310.046875 287.265625 C 310.574219 287.371094 311.097656 287.503906 311.613281 287.660156 C 312.128906 287.816406 312.636719 288 313.132812 288.203125 C 313.628906 288.410156 314.117188 288.640625 314.59375 288.894531 C 315.066406 289.152344 315.53125 289.429688 315.976562 289.726562 C 316.425781 290.027344 316.859375 290.347656 317.273438 290.691406 C 317.691406 291.03125 318.089844 291.394531 318.472656 291.773438 C 318.851562 292.15625 319.214844 292.554688 319.554688 292.972656 C 319.898438 293.390625 320.21875 293.820312 320.519531 294.269531 C 320.816406 294.71875 321.09375 295.179688 321.347656 295.65625 C 321.605469 296.128906 321.832031 296.617188 322.039062 297.113281 C 322.246094 297.613281 322.429688 298.121094 322.585938 298.636719 C 322.742188 299.152344 322.875 299.671875 322.980469 300.203125 C 323.085938 300.730469 323.164062 301.261719 323.21875 301.800781 C 323.269531 302.335938 323.296875 302.875 323.296875 303.414062 Z M 323.296875 303.414062 " fill-opacity="1" fill-rule="nonzero"/></svg>