<svg xmlns="http://www.w3.org/2000/svg" xmlns:xlink="http://www.w3.org/1999/xlink" width="960" zoomAndPan="magnify" viewBox="0 0 720 719.999996" height="960" preserveAspectRatio="xMidYMid meet" version="1.0"><path fill="#192e59" d="M 491.632812 455.335938 L 228.367188 455.335938 L 228.367188 263.867188 L 381.90625 263.867188 C 385.210938 263.867188 387.890625 261.1875 387.890625 257.882812 C 387.890625 254.582031 385.210938 251.898438 381.90625 251.898438 L 222.382812 251.898438 C 219.078125 251.898438 216.398438 254.582031 216.398438 257.882812 L 216.398438 461.320312 C 216.398438 464.621094 219.078125 467.300781 222.382812 467.300781 L 497.617188 467.300781 C 500.921875 467.300781 503.601562 464.621094 503.601562 461.320312 L 503.601562 257.882812 C 503.601562 254.582031 500.921875 251.898438 497.617188 251.898438 C 494.3125 251.898438 491.632812 254.582031 491.632812 257.882812 Z M 491.632812 455.335938 " fill-opacity="1" fill-rule="nonzero"/><path fill="#192e59" d="M 222.382812 443.367188 L 497.617188 443.367188 C 500.921875 443.367188 503.601562 440.6875 503.601562 437.386719 C 503.601562 434.082031 500.921875 431.402344 497.617188 431.402344 L 222.382812 431.402344 C 219.078125 431.402344 216.398438 434.082031 216.398438 437.386719 C 216.398438 440.6875 219.078125 443.367188 222.382812 443.367188 Z M 222.382812 443.367188 " fill-opacity="1" fill-rule="nonzero"/><path fill="#192e59" d="M 306.148438 503.203125 L 413.851562 503.203125 C 417.152344 503.203125 419.832031 500.523438 419.832031 497.21875 C 419.832031 493.914062 417.152344 491.234375 413.851562 491.234375 L 306.148438 491.234375 C 302.847656 491.234375 300.167969 493.914062 300.167969 497.21875 C 300.167969 500.523438 302.847656 503.203125 306.148438 503.203125 Z M 306.148438 503.203125 " fill-opacity="1" fill-rule="nonzero"/><path fill="#192e59" d="M 323.789062 499.121094 L 335.753906 463.21875 C 336.8125 460.070312 335.101562 456.675781 331.984375 455.648438 C 328.835938 454.585938 325.441406 456.300781 324.410156 459.417969 L 312.445312 495.316406 C 311.386719 498.464844 313.097656 501.863281 316.214844 502.890625 C 319.363281 503.949219 322.757812 502.234375 323.789062 499.121094 Z M 323.789062 499.121094 " fill-opacity="1" fill-rule="nonzero"/><path fill="#192e59" d="M 396.210938 499.121094 L 384.246094 463.21875 C 383.1875 460.070312 384.898438 456.675781 388.015625 455.648438 C 391.164062 454.585938 394.558594 456.300781 395.589844 459.417969 L 407.554688 495.316406 C 408.613281 498.464844 406.902344 501.863281 403.785156 502.890625 C 400.636719 503.949219 397.242188 502.234375 396.210938 499.121094 Z M 396.210938 499.121094 " fill-opacity="1" fill-rule="nonzero"/><path fill="#192e59" d="M 472.25 269.695312 L 349.808594 377.207031 C 348.65625 378.207031 343.203125 370.507812 337.125 364.523438 C 330.519531 358.011719 323.351562 353.089844 324.441406 351.839844 L 431.957031 229.398438 C 443.050781 216.902344 461.71875 216.34375 473.496094 228.152344 C 485.339844 239.964844 484.746094 258.601562 472.25 269.695312 Z M 465.050781 236.597656 C 458.101562 229.679688 447.445312 229.992188 440.929688 237.316406 L 337.125 355.519531 L 346.132812 364.523438 L 464.304688 260.75 C 471.660156 254.207031 472 243.546875 465.050781 236.597656 Z M 465.050781 236.597656 " fill-opacity="1" fill-rule="nonzero"/><path fill="#192e59" d="M 273.085938 406.316406 C 269.5 403.417969 270.40625 397.714844 274.707031 396.0625 C 282.402344 393.132812 286.421875 387.679688 291.84375 375.152344 C 296.707031 363.933594 298.046875 361.316406 301.847656 357.480469 C 313.535156 345.796875 332.484375 345.796875 344.167969 357.480469 C 355.855469 369.167969 355.855469 388.117188 344.167969 399.800781 C 328.429688 415.507812 293.589844 422.769531 273.085938 406.316406 Z M 335.691406 391.324219 C 342.703125 384.3125 342.703125 372.96875 335.691406 365.957031 C 328.679688 358.945312 317.335938 358.945312 310.324219 365.957031 C 308.082031 368.203125 306.898438 370.476562 302.847656 379.886719 C 298.453125 390.046875 294.496094 396.808594 288.917969 401.515625 C 304.4375 406.96875 325.8125 401.234375 335.691406 391.324219 Z M 335.691406 391.324219 " fill-opacity="1" fill-rule="nonzero"/><path fill="#192e59" d="M 349.34375 335.011719 L 366.605469 352.183594 C 368.945312 354.519531 372.714844 354.519531 375.050781 352.183594 C 377.390625 349.847656 377.390625 346.046875 375.050781 343.707031 L 357.789062 326.535156 C 355.449219 324.199219 351.648438 324.230469 349.3125 326.566406 C 346.972656 328.90625 347.003906 332.675781 349.34375 335.011719 Z M 349.34375 335.011719 " fill-opacity="1" fill-rule="nonzero"/></svg>