<svg xmlns="http://www.w3.org/2000/svg" xmlns:xlink="http://www.w3.org/1999/xlink" width="960" zoomAndPan="magnify" viewBox="0 0 720 719.999996" height="960" preserveAspectRatio="xMidYMid meet" version="1.0"><defs><clipPath id="11fcb0ca59"><path d="M 216 241.558594 L 504 241.558594 L 504 478 L 216 478 Z M 216 241.558594 " clip-rule="nonzero"/></clipPath></defs><g clip-path="url(#11fcb0ca59)"><path fill="#192e59" d="M 386.601562 477.773438 C 385.933594 477.777344 385.277344 477.714844 384.621094 477.589844 C 383.96875 477.460938 383.335938 477.273438 382.71875 477.019531 C 382.101562 476.769531 381.515625 476.460938 380.960938 476.089844 C 380.40625 475.722656 379.894531 475.304688 379.421875 474.835938 C 378.949219 474.367188 378.527344 473.855469 378.15625 473.304688 C 377.785156 472.75 377.472656 472.167969 377.21875 471.554688 C 376.960938 470.9375 376.769531 470.304688 376.640625 469.652344 C 376.507812 469 376.445312 468.339844 376.445312 467.675781 C 376.445312 467.011719 376.507812 466.351562 376.640625 465.699219 C 376.769531 465.046875 376.960938 464.414062 377.21875 463.796875 C 377.472656 463.183594 377.785156 462.601562 378.15625 462.046875 C 378.527344 461.496094 378.949219 460.984375 379.421875 460.515625 C 379.894531 460.046875 380.40625 459.628906 380.960938 459.261719 C 381.515625 458.890625 382.101562 458.582031 382.71875 458.332031 C 383.335938 458.078125 383.96875 457.890625 384.621094 457.761719 C 385.277344 457.636719 385.933594 457.574219 386.601562 457.578125 C 434.28125 457.578125 458.125 457.578125 470.921875 444.671875 C 477.011719 438.53125 480.105469 429.996094 481.757812 417.609375 C 483.617188 403.765625 483.617188 384.820312 483.617188 359.632812 C 483.617188 347.765625 483.71875 355.882812 483.617188 346.101562 C 483.609375 345.4375 483.671875 344.785156 483.792969 344.136719 C 483.917969 343.484375 484.105469 342.855469 484.355469 342.242188 C 484.601562 341.632812 484.910156 341.050781 485.273438 340.496094 C 485.636719 339.945312 486.054688 339.4375 486.519531 338.964844 C 486.984375 338.496094 487.492188 338.078125 488.039062 337.710938 C 488.585938 337.339844 489.167969 337.027344 489.777344 336.773438 C 490.386719 336.519531 491.015625 336.328125 491.664062 336.199219 C 492.3125 336.070312 492.964844 336.003906 493.628906 336.003906 C 494.289062 336.003906 494.941406 336.070312 495.589844 336.199219 C 496.238281 336.328125 496.867188 336.519531 497.476562 336.773438 C 498.089844 337.027344 498.667969 337.339844 499.214844 337.710938 C 499.765625 338.078125 500.269531 338.496094 500.738281 338.964844 C 501.203125 339.4375 501.617188 339.945312 501.980469 340.496094 C 502.34375 341.050781 502.652344 341.632812 502.902344 342.242188 C 503.148438 342.855469 503.335938 343.484375 503.460938 344.136719 C 503.585938 344.785156 503.644531 345.4375 503.640625 346.101562 C 503.742188 364.417969 503.742188 357.238281 503.742188 359.632812 C 503.742188 385.339844 503.742188 404.703125 501.679688 420.210938 C 499.40625 437.28125 494.660156 449.355469 485.0625 459.035156 C 466.484375 477.773438 439.855469 477.773438 386.601562 477.773438 Z M 276.066406 467.675781 C 276.070312 468.335938 276.011719 468.992188 275.886719 469.640625 C 275.761719 470.289062 275.574219 470.921875 275.328125 471.53125 C 275.078125 472.144531 274.769531 472.726562 274.40625 473.277344 C 274.042969 473.828125 273.628906 474.339844 273.164062 474.808594 C 272.699219 475.277344 272.191406 475.699219 271.640625 476.066406 C 271.09375 476.4375 270.515625 476.746094 269.902344 477 C 269.292969 477.257812 268.664062 477.449219 268.015625 477.578125 C 267.367188 477.707031 266.714844 477.773438 266.054688 477.773438 C 265.390625 477.773438 264.738281 477.707031 264.089844 477.578125 C 263.441406 477.449219 262.8125 477.257812 262.203125 477 C 261.59375 476.746094 261.011719 476.4375 260.464844 476.066406 C 259.917969 475.699219 259.410156 475.277344 258.945312 474.808594 C 258.480469 474.339844 258.0625 473.828125 257.699219 473.277344 C 257.335938 472.726562 257.027344 472.144531 256.78125 471.53125 C 256.53125 470.921875 256.34375 470.289062 256.21875 469.640625 C 256.097656 468.992188 256.035156 468.335938 256.042969 467.675781 C 256.039062 466.6875 255.992188 465.699219 255.894531 464.714844 C 255.796875 463.730469 255.652344 462.75 255.457031 461.78125 C 255.265625 460.808594 255.023438 459.851562 254.738281 458.902344 C 254.453125 457.957031 254.121094 457.023438 253.742188 456.109375 C 253.363281 455.195312 252.945312 454.300781 252.480469 453.425781 C 252.015625 452.554688 251.507812 451.703125 250.960938 450.878906 C 250.414062 450.054688 249.828125 449.257812 249.203125 448.492188 C 248.578125 447.722656 247.914062 446.988281 247.21875 446.285156 C 246.523438 445.582031 245.792969 444.917969 245.03125 444.285156 C 244.269531 443.652344 243.476562 443.058594 242.65625 442.503906 C 241.839844 441.949219 240.992188 441.4375 240.125 440.964844 C 239.253906 440.492188 238.363281 440.066406 237.449219 439.679688 C 236.539062 439.292969 235.609375 438.953125 234.667969 438.660156 C 233.722656 438.367188 232.765625 438.117188 231.796875 437.917969 C 230.828125 437.714844 229.851562 437.5625 228.867188 437.457031 C 227.882812 437.351562 226.894531 437.292969 225.90625 437.28125 C 225.246094 437.277344 224.59375 437.207031 223.949219 437.074219 C 223.300781 436.941406 222.675781 436.746094 222.070312 436.488281 C 221.460938 436.230469 220.882812 435.917969 220.339844 435.550781 C 219.792969 435.179688 219.285156 434.761719 218.824219 434.292969 C 218.359375 433.824219 217.945312 433.316406 217.578125 432.769531 C 217.214844 432.21875 216.90625 431.640625 216.65625 431.027344 C 216.40625 430.417969 216.214844 429.792969 216.089844 429.144531 C 215.960938 428.496094 215.894531 427.84375 215.894531 427.183594 C 215.894531 426.527344 215.960938 425.875 216.089844 425.226562 C 216.214844 424.578125 216.40625 423.953125 216.65625 423.34375 C 216.90625 422.730469 217.214844 422.152344 217.578125 421.601562 C 217.945312 421.054688 218.359375 420.546875 218.824219 420.078125 C 219.285156 419.609375 219.792969 419.191406 220.339844 418.820312 C 220.882812 418.453125 221.460938 418.140625 222.070312 417.882812 C 222.675781 417.625 223.300781 417.429688 223.949219 417.296875 C 224.59375 417.164062 225.246094 417.09375 225.90625 417.089844 C 229.207031 417.085938 232.476562 417.40625 235.710938 418.050781 C 238.949219 418.695312 242.09375 419.648438 245.140625 420.917969 C 248.1875 422.1875 251.078125 423.742188 253.816406 425.585938 C 256.554688 427.429688 259.085938 429.523438 261.410156 431.867188 C 263.742188 434.226562 265.824219 436.792969 267.652344 439.5625 C 269.484375 442.328125 271.027344 445.25 272.285156 448.320312 C 273.542969 451.390625 274.488281 454.554688 275.125 457.8125 C 275.761719 461.070312 276.074219 464.355469 276.066406 467.675781 Z M 316.316406 467.675781 C 316.320312 468.339844 316.257812 468.992188 316.128906 469.644531 C 316.003906 470.292969 315.8125 470.925781 315.5625 471.539062 C 315.308594 472.152344 315 472.734375 314.632812 473.285156 C 314.265625 473.835938 313.847656 474.347656 313.382812 474.816406 C 312.914062 475.285156 312.40625 475.703125 311.855469 476.074219 C 311.304688 476.441406 310.722656 476.753906 310.113281 477.007812 C 309.5 477.261719 308.871094 477.453125 308.222656 477.582031 C 307.570312 477.710938 306.914062 477.777344 306.253906 477.777344 C 305.589844 477.777344 304.933594 477.710938 304.285156 477.582031 C 303.636719 477.453125 303.003906 477.261719 302.394531 477.007812 C 301.78125 476.753906 301.199219 476.441406 300.652344 476.074219 C 300.101562 475.703125 299.589844 475.285156 299.125 474.816406 C 298.65625 474.347656 298.238281 473.835938 297.871094 473.285156 C 297.507812 472.734375 297.195312 472.152344 296.945312 471.539062 C 296.695312 470.925781 296.503906 470.292969 296.378906 469.644531 C 296.25 468.992188 296.1875 468.339844 296.191406 467.675781 C 296.199219 463.023438 295.753906 458.410156 294.855469 453.84375 C 293.960938 449.277344 292.625 444.84375 290.855469 440.539062 C 289.082031 436.234375 286.910156 432.144531 284.335938 428.269531 C 281.757812 424.394531 278.832031 420.804688 275.546875 417.503906 C 272.304688 414.21875 268.769531 411.285156 264.941406 408.703125 C 261.113281 406.121094 257.066406 403.941406 252.808594 402.164062 C 248.546875 400.386719 244.152344 399.042969 239.621094 398.140625 C 235.09375 397.234375 230.523438 396.785156 225.90625 396.792969 C 225.246094 396.78125 224.589844 396.710938 223.945312 396.574219 C 223.296875 396.4375 222.671875 396.238281 222.0625 395.980469 C 221.457031 395.722656 220.878906 395.40625 220.332031 395.035156 C 219.785156 394.664062 219.28125 394.242188 218.816406 393.769531 C 218.351562 393.300781 217.9375 392.789062 217.574219 392.238281 C 217.210938 391.6875 216.902344 391.105469 216.652344 390.496094 C 216.402344 389.882812 216.210938 389.253906 216.085938 388.605469 C 215.957031 387.957031 215.894531 387.304688 215.894531 386.644531 C 215.894531 385.980469 215.957031 385.328125 216.085938 384.679688 C 216.210938 384.03125 216.402344 383.402344 216.652344 382.789062 C 216.902344 382.179688 217.210938 381.597656 217.574219 381.046875 C 217.9375 380.496094 218.351562 379.984375 218.816406 379.515625 C 219.28125 379.042969 219.785156 378.625 220.332031 378.25 C 220.878906 377.878906 221.457031 377.566406 222.0625 377.304688 C 222.671875 377.046875 223.296875 376.847656 223.945312 376.710938 C 224.589844 376.574219 225.246094 376.503906 225.90625 376.492188 C 228.871094 376.488281 231.828125 376.632812 234.78125 376.921875 C 237.734375 377.214844 240.664062 377.652344 243.570312 378.234375 C 246.480469 378.816406 249.351562 379.539062 252.1875 380.410156 C 255.023438 381.277344 257.808594 382.285156 260.546875 383.429688 C 263.28125 384.574219 265.953125 385.851562 268.5625 387.265625 C 271.171875 388.675781 273.703125 390.214844 276.15625 391.878906 C 278.613281 393.542969 280.980469 395.324219 283.257812 397.222656 C 285.535156 399.121094 287.714844 401.128906 289.792969 403.246094 C 291.898438 405.355469 293.894531 407.566406 295.78125 409.875 C 297.667969 412.183594 299.4375 414.578125 301.089844 417.0625 C 302.742188 419.542969 304.269531 422.101562 305.667969 424.734375 C 307.070312 427.367188 308.335938 430.0625 309.472656 432.816406 C 310.605469 435.574219 311.605469 438.382812 312.464844 441.238281 C 313.320312 444.09375 314.039062 446.984375 314.613281 449.910156 C 315.1875 452.835938 315.617188 455.78125 315.902344 458.75 C 316.1875 461.71875 316.324219 464.695312 316.316406 467.675781 Z M 356.464844 467.675781 C 356.464844 468.335938 356.402344 468.992188 356.277344 469.644531 C 356.148438 470.292969 355.960938 470.925781 355.707031 471.535156 C 355.457031 472.148438 355.144531 472.730469 354.78125 473.28125 C 354.414062 473.832031 353.996094 474.34375 353.527344 474.8125 C 353.0625 475.28125 352.550781 475.699219 352 476.066406 C 351.453125 476.4375 350.871094 476.75 350.257812 477 C 349.648438 477.253906 349.019531 477.449219 348.367188 477.578125 C 347.71875 477.707031 347.0625 477.769531 346.402344 477.769531 C 345.738281 477.769531 345.082031 477.707031 344.433594 477.578125 C 343.785156 477.449219 343.152344 477.253906 342.542969 477 C 341.929688 476.75 341.351562 476.4375 340.800781 476.066406 C 340.25 475.699219 339.742188 475.28125 339.273438 474.8125 C 338.808594 474.34375 338.390625 473.832031 338.023438 473.28125 C 337.65625 472.730469 337.347656 472.148438 337.09375 471.535156 C 336.84375 470.925781 336.652344 470.292969 336.527344 469.644531 C 336.398438 468.992188 336.335938 468.335938 336.339844 467.675781 C 336.34375 464.03125 336.171875 460.398438 335.824219 456.769531 C 335.472656 453.144531 334.949219 449.542969 334.246094 445.96875 C 333.546875 442.394531 332.671875 438.863281 331.625 435.371094 C 330.578125 431.882812 329.363281 428.453125 327.980469 425.082031 C 326.597656 421.710938 325.054688 418.414062 323.351562 415.195312 C 321.648438 411.976562 319.792969 408.847656 317.78125 405.808594 C 315.769531 402.769531 313.617188 399.835938 311.320312 397.007812 C 309.023438 394.179688 306.59375 391.472656 304.035156 388.878906 C 301.484375 386.308594 298.8125 383.867188 296.019531 381.558594 C 293.226562 379.25 290.328125 377.082031 287.324219 375.058594 C 284.316406 373.035156 281.21875 371.167969 278.027344 369.449219 C 274.835938 367.734375 271.570312 366.175781 268.226562 364.78125 C 264.882812 363.386719 261.476562 362.160156 258.011719 361.101562 C 254.546875 360.042969 251.039062 359.160156 247.484375 358.449219 C 243.933594 357.734375 240.355469 357.199219 236.75 356.839844 C 233.144531 356.484375 229.527344 356.304688 225.90625 356.300781 C 225.246094 356.292969 224.589844 356.21875 223.945312 356.082031 C 223.296875 355.945312 222.671875 355.75 222.0625 355.488281 C 221.457031 355.230469 220.878906 354.914062 220.332031 354.542969 C 219.785156 354.171875 219.28125 353.75 218.816406 353.28125 C 218.351562 352.808594 217.9375 352.300781 217.574219 351.75 C 217.210938 351.195312 216.902344 350.617188 216.652344 350.003906 C 216.402344 349.394531 216.210938 348.765625 216.085938 348.117188 C 215.957031 347.46875 215.894531 346.8125 215.894531 346.152344 C 215.894531 345.492188 215.957031 344.835938 216.085938 344.1875 C 216.210938 343.539062 216.402344 342.910156 216.652344 342.300781 C 216.902344 341.6875 217.210938 341.109375 217.574219 340.554688 C 217.9375 340.003906 218.351562 339.496094 218.816406 339.023438 C 219.28125 338.554688 219.785156 338.132812 220.332031 337.761719 C 220.878906 337.390625 221.457031 337.074219 222.0625 336.816406 C 222.671875 336.554688 223.296875 336.359375 223.945312 336.222656 C 224.589844 336.085938 225.246094 336.011719 225.90625 336.003906 C 230.1875 336.003906 234.460938 336.214844 238.71875 336.640625 C 242.980469 337.0625 247.210938 337.699219 251.410156 338.542969 C 255.609375 339.382812 259.753906 340.433594 263.847656 341.6875 C 267.945312 342.941406 271.964844 344.394531 275.917969 346.050781 C 279.867188 347.703125 283.726562 349.546875 287.492188 351.582031 C 291.261719 353.617188 294.917969 355.835938 298.464844 358.234375 C 302.011719 360.632812 305.433594 363.203125 308.726562 365.9375 C 312.019531 368.675781 315.167969 371.570312 318.171875 374.621094 C 321.207031 377.675781 324.085938 380.871094 326.804688 384.207031 C 329.527344 387.542969 332.078125 391.003906 334.460938 394.589844 C 336.84375 398.175781 339.042969 401.871094 341.0625 405.675781 C 343.082031 409.476562 344.910156 413.367188 346.550781 417.351562 C 348.1875 421.332031 349.628906 425.382812 350.867188 429.503906 C 352.109375 433.628906 353.148438 437.800781 353.980469 442.027344 C 354.8125 446.25 355.433594 450.503906 355.851562 454.789062 C 356.265625 459.074219 356.46875 463.371094 356.464844 467.675781 Z M 235.917969 312.375 C 235.921875 313.035156 235.863281 313.691406 235.738281 314.339844 C 235.613281 314.988281 235.425781 315.621094 235.179688 316.234375 C 234.929688 316.84375 234.621094 317.425781 234.257812 317.976562 C 233.894531 318.527344 233.480469 319.039062 233.015625 319.507812 C 232.546875 319.976562 232.042969 320.398438 231.492188 320.765625 C 230.945312 321.136719 230.367188 321.445312 229.753906 321.699219 C 229.144531 321.953125 228.515625 322.148438 227.867188 322.277344 C 227.21875 322.40625 226.566406 322.46875 225.90625 322.46875 C 225.246094 322.46875 224.589844 322.40625 223.941406 322.277344 C 223.292969 322.148438 222.664062 321.953125 222.054688 321.699219 C 221.445312 321.445312 220.867188 321.136719 220.316406 320.765625 C 219.769531 320.398438 219.261719 319.976562 218.796875 319.507812 C 218.332031 319.039062 217.917969 318.527344 217.550781 317.976562 C 217.1875 317.425781 216.882812 316.84375 216.632812 316.234375 C 216.382812 315.621094 216.195312 314.988281 216.070312 314.339844 C 215.949219 313.691406 215.886719 313.035156 215.894531 312.375 C 215.894531 306.027344 215.894531 302.800781 216.203125 299.363281 C 216.367188 297.542969 216.613281 295.730469 216.933594 293.929688 C 217.253906 292.125 217.652344 290.34375 218.128906 288.574219 C 218.605469 286.808594 219.15625 285.066406 219.78125 283.34375 C 220.40625 281.625 221.105469 279.9375 221.878906 278.277344 C 222.652344 276.617188 223.492188 274.996094 224.402344 273.40625 C 225.316406 271.820312 226.292969 270.277344 227.339844 268.773438 C 228.382812 267.273438 229.492188 265.816406 230.664062 264.410156 C 231.832031 263.003906 233.0625 261.652344 234.347656 260.351562 C 235.636719 259.050781 236.976562 257.808594 238.371094 256.621094 C 239.765625 255.4375 241.210938 254.3125 242.703125 253.253906 C 244.191406 252.191406 245.726562 251.199219 247.304688 250.269531 C 248.882812 249.34375 250.496094 248.484375 252.148438 247.695312 C 253.796875 246.90625 255.480469 246.191406 257.191406 245.546875 C 258.90625 244.902344 260.644531 244.335938 262.40625 243.839844 C 264.167969 243.347656 265.949219 242.929688 267.746094 242.589844 C 269.542969 242.25 271.355469 241.988281 273.175781 241.804688 C 274.722656 241.699219 276.476562 241.59375 278.644531 241.59375 C 282.875 241.492188 284.21875 241.492188 286.179688 241.492188 L 386.601562 241.492188 C 439.855469 241.492188 466.484375 241.492188 485.0625 260.226562 C 489.015625 264.203125 492.214844 268.710938 494.660156 273.757812 C 497.140625 278.949219 498.960938 284.363281 500.128906 289.996094 C 500.265625 290.648438 500.335938 291.304688 500.34375 291.96875 C 500.351562 292.632812 500.296875 293.289062 500.175781 293.941406 C 500.054688 294.597656 499.871094 295.230469 499.628906 295.847656 C 499.382812 296.464844 499.082031 297.054688 498.722656 297.613281 C 498.367188 298.171875 497.957031 298.691406 497.496094 299.171875 C 497.039062 299.652344 496.539062 300.082031 495.992188 300.464844 C 495.449219 300.847656 494.875 301.171875 494.269531 301.441406 C 493.664062 301.714844 493.035156 301.921875 492.390625 302.070312 C 491.742188 302.203125 491.089844 302.269531 490.433594 302.269531 C 489.773438 302.273438 489.121094 302.214844 488.472656 302.089844 C 487.828125 301.964844 487.199219 301.777344 486.585938 301.527344 C 485.976562 301.28125 485.398438 300.976562 484.847656 300.613281 C 484.296875 300.25 483.785156 299.839844 483.316406 299.375 C 482.847656 298.914062 482.425781 298.410156 482.054688 297.867188 C 481.683594 297.324219 481.371094 296.746094 481.109375 296.140625 C 480.851562 295.535156 480.65625 294.910156 480.519531 294.265625 C 479.730469 290.253906 478.457031 286.402344 476.703125 282.710938 C 475.199219 279.703125 473.273438 276.996094 470.921875 274.589844 C 458.125 261.789062 434.28125 261.789062 386.601562 261.789062 L 286.179688 261.789062 C 281.84375 261.789062 279.367188 261.683594 278.953125 261.789062 C 277.40625 261.789062 276.269531 261.789062 275.136719 261.890625 C 273.890625 262.027344 272.65625 262.214844 271.425781 262.457031 C 270.199219 262.695312 268.984375 262.988281 267.78125 263.332031 C 266.578125 263.679688 265.390625 264.074219 264.21875 264.519531 C 263.050781 264.964844 261.902344 265.460938 260.773438 266.003906 C 259.648438 266.546875 258.546875 267.136719 257.46875 267.777344 C 256.390625 268.414062 255.34375 269.097656 254.328125 269.824219 C 253.308594 270.550781 252.320312 271.320312 251.371094 272.132812 C 250.417969 272.945312 249.5 273.796875 248.621094 274.6875 C 247.738281 275.574219 246.898438 276.5 246.097656 277.464844 C 245.296875 278.425781 244.539062 279.417969 243.824219 280.445312 C 243.105469 281.472656 242.4375 282.527344 241.808594 283.609375 C 241.183594 284.695312 240.605469 285.804688 240.074219 286.9375 C 239.542969 288.070312 239.058594 289.222656 238.628906 290.398438 C 238.195312 291.574219 237.8125 292.761719 237.480469 293.96875 C 237.152344 295.175781 236.871094 296.394531 236.644531 297.628906 C 236.417969 298.859375 236.242188 300.097656 236.121094 301.34375 C 235.917969 303.113281 235.917969 306.234375 235.917969 312.375 Z M 235.917969 312.375 " fill-opacity="1" fill-rule="nonzero"/></g></svg>