<svg xmlns="http://www.w3.org/2000/svg" xmlns:xlink="http://www.w3.org/1999/xlink" width="960" zoomAndPan="magnify" viewBox="0 0 720 719.999996" height="960" preserveAspectRatio="xMidYMid meet" version="1.0"><defs><clipPath id="de13f4cc73"><path d="M 216 222.839844 L 483 222.839844 L 483 476 L 216 476 Z M 216 222.839844 " clip-rule="nonzero"/></clipPath></defs><g clip-path="url(#de13f4cc73)"><path fill="#192e59" d="M 361.027344 462.265625 L 277.570312 462.265625 L 277.570312 236.519531 L 421.222656 236.519531 L 421.222656 330.648438 C 421.222656 331.097656 421.269531 331.542969 421.355469 331.984375 C 421.445312 332.425781 421.574219 332.851562 421.746094 333.265625 C 421.917969 333.683594 422.128906 334.078125 422.378906 334.449219 C 422.625 334.824219 422.910156 335.167969 423.226562 335.488281 C 423.546875 335.804688 423.890625 336.089844 424.265625 336.335938 C 424.636719 336.585938 425.03125 336.796875 425.445312 336.96875 C 425.863281 337.140625 426.289062 337.269531 426.730469 337.359375 C 427.171875 337.445312 427.617188 337.492188 428.066406 337.492188 C 428.515625 337.492188 428.960938 337.445312 429.398438 337.359375 C 429.839844 337.269531 430.269531 337.140625 430.683594 336.96875 C 431.097656 336.796875 431.492188 336.585938 431.867188 336.335938 C 432.238281 336.089844 432.585938 335.804688 432.902344 335.488281 C 433.21875 335.167969 433.503906 334.824219 433.753906 334.449219 C 434.003906 334.078125 434.214844 333.683594 434.386719 333.265625 C 434.558594 332.851562 434.6875 332.425781 434.773438 331.984375 C 434.863281 331.542969 434.90625 331.097656 434.90625 330.648438 L 434.90625 284.40625 L 469.109375 284.40625 L 469.109375 300.753906 C 469.109375 301.203125 469.152344 301.648438 469.242188 302.089844 C 469.328125 302.53125 469.457031 302.957031 469.628906 303.375 C 469.800781 303.789062 470.011719 304.183594 470.261719 304.554688 C 470.511719 304.929688 470.796875 305.273438 471.113281 305.59375 C 471.429688 305.910156 471.777344 306.195312 472.148438 306.445312 C 472.523438 306.691406 472.917969 306.902344 473.332031 307.074219 C 473.746094 307.246094 474.175781 307.378906 474.617188 307.464844 C 475.054688 307.550781 475.5 307.597656 475.949219 307.597656 C 476.398438 307.597656 476.84375 307.550781 477.285156 307.464844 C 477.726562 307.378906 478.152344 307.246094 478.566406 307.074219 C 478.984375 306.902344 479.378906 306.691406 479.75 306.445312 C 480.125 306.195312 480.46875 305.910156 480.789062 305.59375 C 481.105469 305.273438 481.386719 304.929688 481.636719 304.554688 C 481.886719 304.183594 482.097656 303.789062 482.269531 303.375 C 482.441406 302.957031 482.570312 302.53125 482.660156 302.089844 C 482.746094 301.648438 482.789062 301.203125 482.789062 300.753906 L 482.789062 257.042969 C 482.789062 255.921875 482.734375 254.804688 482.621094 253.691406 C 482.511719 252.578125 482.347656 251.472656 482.125 250.375 C 481.90625 249.277344 481.632812 248.191406 481.308594 247.121094 C 480.984375 246.046875 480.605469 244.996094 480.175781 243.960938 C 479.746094 242.925781 479.269531 241.914062 478.738281 240.929688 C 478.210938 239.941406 477.636719 238.980469 477.015625 238.050781 C 476.390625 237.121094 475.726562 236.222656 475.015625 235.355469 C 474.304688 234.492188 473.550781 233.660156 472.761719 232.871094 C 471.96875 232.078125 471.140625 231.328125 470.273438 230.617188 C 469.410156 229.90625 468.511719 229.238281 467.578125 228.617188 C 466.648438 227.996094 465.691406 227.417969 464.703125 226.890625 C 463.714844 226.363281 462.703125 225.882812 461.671875 225.453125 C 460.636719 225.027344 459.582031 224.648438 458.511719 224.320312 C 457.441406 223.996094 456.355469 223.722656 455.257812 223.503906 C 454.160156 223.285156 453.054688 223.121094 451.9375 223.007812 C 450.824219 222.898438 449.707031 222.839844 448.585938 222.839844 L 250.207031 222.839844 C 249.085938 222.839844 247.96875 222.898438 246.855469 223.007812 C 245.742188 223.121094 244.636719 223.285156 243.535156 223.503906 C 242.4375 223.722656 241.355469 223.996094 240.28125 224.320312 C 239.210938 224.648438 238.15625 225.023438 237.125 225.453125 C 236.089844 225.882812 235.078125 226.363281 234.089844 226.890625 C 233.105469 227.417969 232.144531 227.996094 231.214844 228.617188 C 230.28125 229.238281 229.382812 229.90625 228.519531 230.617188 C 227.652344 231.328125 226.824219 232.078125 226.03125 232.871094 C 225.242188 233.660156 224.488281 234.492188 223.78125 235.355469 C 223.070312 236.222656 222.402344 237.121094 221.78125 238.050781 C 221.15625 238.980469 220.582031 239.941406 220.054688 240.929688 C 219.527344 241.914062 219.046875 242.925781 218.617188 243.960938 C 218.1875 244.996094 217.8125 246.046875 217.484375 247.121094 C 217.160156 248.191406 216.886719 249.277344 216.667969 250.375 C 216.449219 251.472656 216.28125 252.578125 216.171875 253.691406 C 216.058594 254.804688 216.003906 255.921875 216.003906 257.042969 L 216.003906 441.742188 C 216.003906 442.863281 216.058594 443.980469 216.171875 445.09375 C 216.28125 446.207031 216.449219 447.316406 216.667969 448.414062 C 216.886719 449.511719 217.160156 450.59375 217.484375 451.667969 C 217.8125 452.738281 218.1875 453.792969 218.617188 454.824219 C 219.046875 455.859375 219.527344 456.871094 220.054688 457.859375 C 220.582031 458.84375 221.15625 459.804688 221.78125 460.734375 C 222.402344 461.667969 223.070312 462.566406 223.78125 463.429688 C 224.488281 464.296875 225.242188 465.125 226.03125 465.917969 C 226.824219 466.707031 227.652344 467.460938 228.519531 468.167969 C 229.382812 468.878906 230.28125 469.546875 231.214844 470.167969 C 232.144531 470.792969 233.105469 471.367188 234.089844 471.894531 C 235.078125 472.425781 236.089844 472.902344 237.125 473.332031 C 238.15625 473.761719 239.210938 474.136719 240.28125 474.464844 C 241.355469 474.789062 242.4375 475.0625 243.535156 475.28125 C 244.636719 475.5 245.742188 475.667969 246.855469 475.777344 C 247.96875 475.890625 249.085938 475.945312 250.207031 475.945312 L 361.027344 475.945312 C 361.476562 475.945312 361.921875 475.902344 362.359375 475.816406 C 362.800781 475.726562 363.230469 475.597656 363.644531 475.425781 C 364.058594 475.253906 364.453125 475.042969 364.828125 474.792969 C 365.199219 474.542969 365.546875 474.261719 365.863281 473.941406 C 366.179688 473.625 366.464844 473.28125 366.714844 472.90625 C 366.964844 472.53125 367.175781 472.136719 367.347656 471.722656 C 367.519531 471.308594 367.648438 470.878906 367.734375 470.441406 C 367.824219 470 367.867188 469.554688 367.867188 469.105469 C 367.867188 468.65625 367.824219 468.210938 367.734375 467.769531 C 367.648438 467.332031 367.519531 466.902344 367.347656 466.488281 C 367.175781 466.074219 366.964844 465.679688 366.714844 465.304688 C 366.464844 464.929688 366.179688 464.585938 365.863281 464.269531 C 365.546875 463.949219 365.199219 463.667969 364.828125 463.417969 C 364.453125 463.167969 364.058594 462.957031 363.644531 462.785156 C 363.230469 462.613281 362.800781 462.484375 362.359375 462.394531 C 361.921875 462.308594 361.476562 462.265625 361.027344 462.265625 Z M 448.585938 236.519531 C 449.257812 236.519531 449.929688 236.554688 450.597656 236.621094 C 451.269531 236.6875 451.933594 236.785156 452.589844 236.914062 C 453.25 237.046875 453.902344 237.210938 454.542969 237.40625 C 455.1875 237.601562 455.820312 237.828125 456.441406 238.082031 C 457.0625 238.339844 457.667969 238.628906 458.261719 238.945312 C 458.855469 239.261719 459.429688 239.605469 459.988281 239.980469 C 460.546875 240.351562 461.085938 240.753906 461.605469 241.179688 C 462.125 241.605469 462.625 242.058594 463.097656 242.53125 C 463.574219 243.007812 464.023438 243.503906 464.449219 244.023438 C 464.878906 244.542969 465.277344 245.082031 465.652344 245.640625 C 466.023438 246.199219 466.371094 246.777344 466.6875 247.371094 C 467.003906 247.960938 467.289062 248.570312 467.546875 249.191406 C 467.804688 249.8125 468.03125 250.441406 468.226562 251.085938 C 468.421875 251.730469 468.582031 252.378906 468.714844 253.039062 C 468.847656 253.699219 468.945312 254.363281 469.011719 255.03125 C 469.078125 255.699219 469.109375 256.371094 469.109375 257.042969 L 469.109375 270.726562 L 434.90625 270.726562 L 434.90625 236.519531 Z M 229.683594 332.292969 L 263.886719 332.292969 L 263.886719 366.496094 L 229.683594 366.496094 Z M 263.886719 318.609375 L 229.683594 318.609375 L 229.683594 284.40625 L 263.886719 284.40625 Z M 229.683594 380.175781 L 263.886719 380.175781 L 263.886719 414.378906 L 229.683594 414.378906 Z M 229.683594 257.042969 C 229.683594 256.371094 229.71875 255.699219 229.785156 255.03125 C 229.847656 254.363281 229.949219 253.699219 230.078125 253.039062 C 230.210938 252.378906 230.371094 251.730469 230.566406 251.085938 C 230.761719 250.441406 230.988281 249.8125 231.246094 249.191406 C 231.503906 248.570312 231.789062 247.960938 232.109375 247.371094 C 232.425781 246.777344 232.769531 246.199219 233.144531 245.640625 C 233.515625 245.082031 233.917969 244.542969 234.34375 244.023438 C 234.769531 243.503906 235.21875 243.007812 235.695312 242.53125 C 236.171875 242.058594 236.667969 241.605469 237.1875 241.179688 C 237.707031 240.753906 238.246094 240.351562 238.804688 239.980469 C 239.363281 239.605469 239.941406 239.261719 240.53125 238.945312 C 241.125 238.628906 241.730469 238.339844 242.351562 238.082031 C 242.972656 237.828125 243.605469 237.601562 244.25 237.40625 C 244.890625 237.210938 245.542969 237.046875 246.203125 236.914062 C 246.863281 236.785156 247.527344 236.6875 248.195312 236.621094 C 248.863281 236.554688 249.535156 236.519531 250.207031 236.519531 L 263.886719 236.519531 L 263.886719 270.726562 L 229.683594 270.726562 Z M 250.207031 462.265625 C 249.535156 462.265625 248.863281 462.230469 248.195312 462.167969 C 247.527344 462.101562 246.863281 462 246.203125 461.871094 C 245.542969 461.738281 244.890625 461.578125 244.25 461.382812 C 243.605469 461.1875 242.972656 460.960938 242.351562 460.703125 C 241.730469 460.445312 241.125 460.160156 240.53125 459.839844 C 239.941406 459.523438 239.363281 459.179688 238.804688 458.804688 C 238.246094 458.433594 237.707031 458.03125 237.1875 457.605469 C 236.667969 457.179688 236.171875 456.730469 235.695312 456.253906 C 235.21875 455.777344 234.769531 455.28125 234.34375 454.761719 C 233.917969 454.242188 233.515625 453.703125 233.144531 453.144531 C 232.769531 452.585938 232.425781 452.007812 232.109375 451.417969 C 231.789062 450.824219 231.503906 450.21875 231.246094 449.597656 C 230.988281 448.976562 230.761719 448.34375 230.566406 447.699219 C 230.371094 447.058594 230.210938 446.40625 230.078125 445.746094 C 229.949219 445.085938 229.847656 444.421875 229.785156 443.753906 C 229.71875 443.085938 229.683594 442.414062 229.683594 441.742188 L 229.683594 428.0625 L 263.886719 428.0625 L 263.886719 462.265625 Z M 250.207031 462.265625 " fill-opacity="1" fill-rule="nonzero"/></g><path fill="#192e59" d="M 475.949219 432.371094 C 475.5 432.371094 475.054688 432.414062 474.617188 432.503906 C 474.175781 432.589844 473.746094 432.71875 473.332031 432.890625 C 472.917969 433.0625 472.523438 433.273438 472.148438 433.523438 C 471.777344 433.773438 471.429688 434.058594 471.113281 434.375 C 470.796875 434.691406 470.511719 435.039062 470.261719 435.410156 C 470.011719 435.785156 469.800781 436.179688 469.628906 436.59375 C 469.457031 437.007812 469.328125 437.4375 469.242188 437.878906 C 469.152344 438.316406 469.109375 438.761719 469.109375 439.210938 L 469.109375 441.742188 C 469.113281 442.6875 469.054688 443.628906 468.929688 444.566406 C 468.804688 445.503906 468.613281 446.425781 468.355469 447.335938 C 468.101562 448.246094 467.785156 449.132812 467.40625 450 C 467.023438 450.867188 466.585938 451.699219 466.089844 452.503906 C 465.59375 453.308594 465.042969 454.074219 464.441406 454.804688 C 463.835938 455.53125 463.183594 456.210938 462.484375 456.847656 C 461.785156 457.484375 461.046875 458.070312 460.265625 458.601562 C 459.484375 459.132812 458.667969 459.609375 457.820312 460.027344 C 457.449219 460.167969 457.089844 460.339844 456.742188 460.539062 C 456.398438 460.742188 456.074219 460.972656 455.773438 461.234375 C 455.46875 461.492188 455.1875 461.777344 454.933594 462.085938 C 454.679688 462.390625 454.453125 462.71875 454.257812 463.066406 C 454.0625 463.414062 453.894531 463.777344 453.761719 464.152344 C 453.628906 464.53125 453.53125 464.914062 453.464844 465.308594 C 453.398438 465.703125 453.367188 466.101562 453.371094 466.5 C 453.375 466.898438 453.414062 467.296875 453.484375 467.6875 C 453.558594 468.082031 453.664062 468.464844 453.804688 468.839844 C 453.945312 469.210938 454.117188 469.570312 454.320312 469.914062 C 454.523438 470.257812 454.753906 470.582031 455.015625 470.886719 C 455.273438 471.191406 455.558594 471.46875 455.867188 471.722656 C 456.175781 471.976562 456.503906 472.199219 456.851562 472.398438 C 457.199219 472.59375 457.5625 472.757812 457.9375 472.890625 C 458.316406 473.023438 458.699219 473.121094 459.09375 473.1875 C 459.488281 473.253906 459.886719 473.28125 460.285156 473.277344 C 461.304688 473.277344 462.273438 473.058594 463.199219 472.628906 C 464.660156 471.949219 466.070312 471.171875 467.421875 470.289062 C 468.773438 469.410156 470.054688 468.4375 471.265625 467.375 C 472.480469 466.3125 473.609375 465.167969 474.660156 463.941406 C 475.707031 462.714844 476.664062 461.421875 477.527344 460.0625 C 478.390625 458.699219 479.15625 457.28125 479.816406 455.8125 C 480.476562 454.339844 481.03125 452.832031 481.476562 451.28125 C 481.921875 449.730469 482.253906 448.15625 482.472656 446.558594 C 482.695312 444.960938 482.800781 443.355469 482.789062 441.742188 L 482.789062 439.210938 C 482.789062 438.761719 482.746094 438.316406 482.660156 437.878906 C 482.570312 437.4375 482.441406 437.007812 482.269531 436.59375 C 482.097656 436.179688 481.886719 435.785156 481.636719 435.410156 C 481.386719 435.039062 481.105469 434.691406 480.789062 434.375 C 480.46875 434.058594 480.125 433.773438 479.75 433.523438 C 479.378906 433.273438 478.984375 433.0625 478.566406 432.890625 C 478.152344 432.71875 477.726562 432.589844 477.285156 432.503906 C 476.84375 432.414062 476.398438 432.371094 475.949219 432.371094 Z M 475.949219 432.371094 " fill-opacity="1" fill-rule="nonzero"/><path fill="#192e59" d="M 335.714844 301.691406 C 334.15625 300.792969 332.503906 300.109375 330.765625 299.640625 C 329.023438 299.175781 327.253906 298.941406 325.449219 298.945312 C 323.648438 298.945312 321.878906 299.175781 320.136719 299.644531 C 318.398438 300.109375 316.746094 300.792969 315.1875 301.695312 C 313.628906 302.597656 312.210938 303.683594 310.9375 304.960938 C 309.664062 306.234375 308.578125 307.652344 307.675781 309.214844 C 306.777344 310.773438 306.09375 312.425781 305.628906 314.164062 C 305.164062 315.90625 304.929688 317.675781 304.933594 319.480469 L 304.933594 386.175781 C 304.925781 387.980469 305.152344 389.753906 305.613281 391.5 C 306.074219 393.242188 306.753906 394.898438 307.652344 396.460938 C 308.550781 398.027344 309.636719 399.445312 310.914062 400.722656 C 312.1875 402 313.605469 403.089844 315.167969 403.992188 C 316.730469 404.898438 318.382812 405.582031 320.125 406.046875 C 321.867188 406.511719 323.640625 406.742188 325.445312 406.742188 C 327.25 406.738281 329.023438 406.5 330.765625 406.03125 C 332.503906 405.558594 334.15625 404.867188 335.714844 403.960938 L 393.472656 370.597656 C 395.035156 369.699219 396.453125 368.613281 397.730469 367.339844 C 399.007812 366.066406 400.097656 364.648438 401 363.085938 C 401.902344 361.523438 402.585938 359.875 403.054688 358.132812 C 403.523438 356.390625 403.753906 354.617188 403.753906 352.8125 C 403.753906 351.011719 403.523438 349.238281 403.054688 347.496094 C 402.585938 345.753906 401.902344 344.101562 401 342.542969 C 400.097656 340.980469 399.007812 339.5625 397.730469 338.289062 C 396.453125 337.015625 395.035156 335.925781 393.472656 335.027344 Z M 386.632812 358.738281 L 328.875 392.078125 C 328.617188 392.230469 328.347656 392.359375 328.074219 392.476562 C 327.796875 392.589844 327.515625 392.683594 327.226562 392.761719 C 326.9375 392.839844 326.644531 392.898438 326.347656 392.9375 C 326.050781 392.976562 325.753906 392.996094 325.457031 392.996094 C 325.15625 392.996094 324.859375 392.976562 324.5625 392.9375 C 324.265625 392.898438 323.976562 392.839844 323.6875 392.761719 C 323.398438 392.6875 323.117188 392.589844 322.839844 392.476562 C 322.5625 392.363281 322.296875 392.230469 322.035156 392.082031 C 321.777344 391.933594 321.53125 391.765625 321.292969 391.585938 C 321.054688 391.402344 320.832031 391.207031 320.621094 390.996094 C 320.410156 390.785156 320.210938 390.558594 320.03125 390.324219 C 319.847656 390.085938 319.683594 389.839844 319.53125 389.578125 C 319.382812 389.320312 319.25 389.054688 319.136719 388.777344 C 319.023438 388.503906 318.925781 388.21875 318.847656 387.929688 C 318.769531 387.644531 318.710938 387.351562 318.671875 387.054688 C 318.632812 386.757812 318.613281 386.460938 318.613281 386.160156 L 318.613281 319.464844 C 318.609375 318.863281 318.679688 318.273438 318.832031 317.691406 C 318.988281 317.109375 319.214844 316.554688 319.515625 316.035156 C 319.816406 315.515625 320.179688 315.042969 320.605469 314.621094 C 321.035156 314.195312 321.511719 313.835938 322.035156 313.539062 C 323.09375 312.933594 324.234375 312.621094 325.453125 312.605469 C 326.683594 312.601562 327.820312 312.917969 328.875 313.546875 L 386.632812 346.890625 C 386.890625 347.039062 387.136719 347.203125 387.375 347.386719 C 387.613281 347.570312 387.835938 347.765625 388.046875 347.976562 C 388.257812 348.1875 388.457031 348.414062 388.636719 348.648438 C 388.820312 348.886719 388.984375 349.132812 389.132812 349.394531 C 389.285156 349.652344 389.414062 349.917969 389.53125 350.195312 C 389.644531 350.472656 389.742188 350.753906 389.816406 351.042969 C 389.894531 351.332031 389.953125 351.625 389.992188 351.921875 C 390.03125 352.21875 390.050781 352.515625 390.050781 352.8125 C 390.050781 353.113281 390.03125 353.410156 389.992188 353.707031 C 389.953125 354.003906 389.894531 354.296875 389.816406 354.582031 C 389.742188 354.871094 389.644531 355.15625 389.53125 355.429688 C 389.414062 355.707031 389.285156 355.976562 389.132812 356.234375 C 388.984375 356.492188 388.820312 356.742188 388.636719 356.976562 C 388.457031 357.214844 388.257812 357.4375 388.046875 357.652344 C 387.835938 357.863281 387.613281 358.058594 387.375 358.242188 C 387.136719 358.421875 386.890625 358.589844 386.632812 358.738281 Z M 386.632812 358.738281 " fill-opacity="1" fill-rule="nonzero"/><path fill="#192e59" d="M 502.847656 343.558594 C 502.378906 341.804688 501.59375 340.207031 500.488281 338.769531 C 499.382812 337.328125 498.046875 336.15625 496.472656 335.253906 L 472.777344 321.570312 C 472 321.121094 471.183594 320.753906 470.332031 320.464844 C 469.484375 320.175781 468.613281 319.972656 467.722656 319.855469 C 466.832031 319.738281 465.9375 319.707031 465.042969 319.765625 C 464.144531 319.824219 463.265625 319.96875 462.394531 320.203125 C 461.527344 320.433594 460.691406 320.75 459.886719 321.144531 C 459.082031 321.542969 458.320312 322.015625 457.609375 322.5625 C 456.894531 323.109375 456.242188 323.71875 455.648438 324.394531 C 455.058594 325.070312 454.535156 325.792969 454.085938 326.574219 L 385.097656 446.074219 C 383.859375 448.21875 382.925781 450.492188 382.304688 452.890625 C 381.683594 455.289062 381.394531 457.726562 381.4375 460.207031 L 381.820312 483.007812 C 381.832031 483.59375 381.878906 484.179688 381.964844 484.761719 C 382.050781 485.34375 382.171875 485.917969 382.332031 486.484375 C 382.492188 487.046875 382.6875 487.601562 382.917969 488.144531 C 383.148438 488.683594 383.414062 489.207031 383.710938 489.714844 C 384.007812 490.222656 384.339844 490.707031 384.699219 491.171875 C 385.0625 491.636719 385.449219 492.074219 385.867188 492.488281 C 386.285156 492.902344 386.726562 493.289062 387.195312 493.644531 C 387.664062 494.003906 388.152344 494.328125 388.660156 494.621094 C 389.167969 494.917969 389.695312 495.175781 390.238281 495.402344 C 390.78125 495.628906 391.335938 495.820312 391.902344 495.972656 C 392.46875 496.128906 393.046875 496.246094 393.628906 496.328125 C 394.210938 496.40625 394.796875 496.449219 395.382812 496.457031 C 395.972656 496.460938 396.558594 496.425781 397.140625 496.355469 C 397.726562 496.285156 398.300781 496.179688 398.871094 496.035156 C 399.441406 495.890625 400 495.707031 400.546875 495.492188 C 401.09375 495.273438 401.625 495.023438 402.140625 494.738281 L 422.078125 483.667969 C 424.246094 482.464844 426.214844 480.988281 427.984375 479.246094 C 429.75 477.503906 431.253906 475.558594 432.492188 473.410156 L 501.472656 353.949219 C 502.386719 352.378906 502.964844 350.691406 503.203125 348.890625 C 503.441406 347.089844 503.320312 345.3125 502.847656 343.558594 Z M 420.648438 466.589844 C 419.382812 468.773438 417.648438 470.480469 415.4375 471.703125 L 395.503906 482.785156 L 395.121094 459.988281 C 395.074219 457.460938 395.683594 455.101562 396.945312 452.914062 L 465.933594 333.425781 L 489.632812 347.109375 Z M 420.648438 466.589844 " fill-opacity="1" fill-rule="nonzero"/></svg>