<svg xmlns="http://www.w3.org/2000/svg" xmlns:xlink="http://www.w3.org/1999/xlink" width="960" zoomAndPan="magnify" viewBox="0 0 720 719.999996" height="960" preserveAspectRatio="xMidYMid meet" version="1.0"><defs><clipPath id="b6eac8137b"><path d="M 216 256.859375 L 504 256.859375 L 504 463.109375 L 216 463.109375 Z M 216 256.859375 " clip-rule="nonzero"/></clipPath></defs><path fill="#192e59" d="M 389.933594 350.71875 C 389.6875 350.46875 389.414062 350.246094 389.125 350.050781 C 388.832031 349.855469 388.523438 349.691406 388.199219 349.554688 C 387.871094 349.421875 387.539062 349.320312 387.191406 349.25 C 386.847656 349.183594 386.5 349.148438 386.148438 349.148438 C 385.796875 349.148438 385.449219 349.183594 385.101562 349.25 C 384.757812 349.320312 384.421875 349.421875 384.097656 349.554688 C 383.773438 349.691406 383.464844 349.855469 383.171875 350.050781 C 382.878906 350.246094 382.609375 350.46875 382.359375 350.71875 C 382.113281 350.964844 381.890625 351.238281 381.695312 351.527344 C 381.5 351.820312 381.335938 352.128906 381.199219 352.457031 C 381.066406 352.78125 380.964844 353.113281 380.894531 353.460938 C 380.828125 353.804688 380.792969 354.152344 380.792969 354.503906 C 380.792969 354.855469 380.828125 355.203125 380.898438 355.550781 C 380.964844 355.894531 381.066406 356.230469 381.203125 356.554688 C 381.335938 356.878906 381.503906 357.1875 381.699219 357.480469 C 381.894531 357.773438 382.117188 358.042969 382.367188 358.289062 L 405.746094 381.667969 L 382.367188 405.050781 C 382.109375 405.300781 381.878906 405.570312 381.679688 405.859375 C 381.476562 406.152344 381.304688 406.464844 381.164062 406.789062 C 381.023438 407.117188 380.917969 407.453125 380.84375 407.800781 C 380.773438 408.148438 380.734375 408.5 380.730469 408.855469 C 380.726562 409.210938 380.761719 409.5625 380.828125 409.914062 C 380.894531 410.261719 380.996094 410.601562 381.128906 410.929688 C 381.265625 411.257812 381.429688 411.570312 381.625 411.867188 C 381.824219 412.164062 382.046875 412.4375 382.300781 412.6875 C 382.550781 412.9375 382.824219 413.164062 383.121094 413.359375 C 383.414062 413.558594 383.726562 413.722656 384.058594 413.855469 C 384.386719 413.992188 384.726562 414.09375 385.074219 414.160156 C 385.421875 414.226562 385.773438 414.257812 386.128906 414.253906 C 386.484375 414.253906 386.835938 414.214844 387.183594 414.140625 C 387.535156 414.066406 387.871094 413.960938 388.195312 413.820312 C 388.523438 413.679688 388.832031 413.507812 389.125 413.308594 C 389.417969 413.105469 389.6875 412.878906 389.933594 412.621094 L 417.101562 385.441406 C 417.347656 385.191406 417.570312 384.921875 417.765625 384.628906 C 417.960938 384.339844 418.125 384.03125 418.261719 383.707031 C 418.394531 383.378906 418.496094 383.046875 418.5625 382.703125 C 418.632812 382.355469 418.667969 382.007812 418.667969 381.65625 C 418.667969 381.304688 418.632812 380.957031 418.5625 380.613281 C 418.496094 380.269531 418.394531 379.933594 418.261719 379.609375 C 418.125 379.285156 417.960938 378.976562 417.765625 378.683594 C 417.570312 378.390625 417.347656 378.121094 417.101562 377.871094 Z M 389.933594 350.71875 " fill-opacity="1" fill-rule="nonzero"/><path fill="#192e59" d="M 338.027344 350.71875 C 337.777344 350.46875 337.507812 350.246094 337.214844 350.050781 C 336.925781 349.855469 336.617188 349.691406 336.289062 349.558594 C 335.964844 349.421875 335.632812 349.320312 335.285156 349.253906 C 334.941406 349.183594 334.59375 349.152344 334.242188 349.152344 C 333.890625 349.152344 333.542969 349.183594 333.199219 349.253906 C 332.855469 349.320312 332.519531 349.421875 332.195312 349.558594 C 331.871094 349.691406 331.5625 349.855469 331.269531 350.050781 C 330.976562 350.246094 330.707031 350.46875 330.457031 350.71875 L 303.289062 377.886719 C 303.039062 378.136719 302.820312 378.40625 302.625 378.699219 C 302.429688 378.988281 302.261719 379.296875 302.128906 379.625 C 301.996094 379.949219 301.894531 380.28125 301.824219 380.628906 C 301.757812 380.972656 301.722656 381.320312 301.722656 381.671875 C 301.722656 382.023438 301.757812 382.371094 301.824219 382.714844 C 301.894531 383.058594 301.996094 383.394531 302.128906 383.71875 C 302.261719 384.042969 302.429688 384.351562 302.625 384.644531 C 302.820312 384.9375 303.039062 385.207031 303.289062 385.457031 L 330.457031 412.621094 C 330.707031 412.863281 330.980469 413.078125 331.269531 413.265625 C 331.5625 413.457031 331.871094 413.613281 332.191406 413.742188 C 332.515625 413.871094 332.847656 413.96875 333.191406 414.03125 C 333.53125 414.097656 333.875 414.125 334.222656 414.125 C 334.570312 414.121094 334.914062 414.085938 335.253906 414.015625 C 335.59375 413.945312 335.925781 413.84375 336.246094 413.707031 C 336.566406 413.574219 336.871094 413.410156 337.160156 413.214844 C 337.449219 413.023438 337.714844 412.800781 337.960938 412.554688 C 338.207031 412.308594 338.425781 412.042969 338.621094 411.753906 C 338.816406 411.464844 338.980469 411.160156 339.113281 410.839844 C 339.246094 410.519531 339.351562 410.191406 339.417969 409.847656 C 339.488281 409.507812 339.527344 409.164062 339.53125 408.816406 C 339.53125 408.46875 339.503906 408.125 339.4375 407.785156 C 339.375 407.441406 339.277344 407.109375 339.148438 406.785156 C 339.019531 406.464844 338.859375 406.15625 338.671875 405.863281 C 338.484375 405.574219 338.269531 405.300781 338.027344 405.050781 L 314.644531 381.667969 L 338.027344 358.289062 C 338.277344 358.042969 338.5 357.773438 338.695312 357.480469 C 338.890625 357.1875 339.054688 356.878906 339.1875 356.554688 C 339.324219 356.230469 339.425781 355.894531 339.492188 355.550781 C 339.5625 355.203125 339.597656 354.855469 339.597656 354.503906 C 339.597656 354.152344 339.5625 353.804688 339.492188 353.460938 C 339.425781 353.113281 339.324219 352.78125 339.1875 352.457031 C 339.054688 352.128906 338.890625 351.820312 338.695312 351.53125 C 338.496094 351.238281 338.277344 350.964844 338.027344 350.71875 Z M 338.027344 350.71875 " fill-opacity="1" fill-rule="nonzero"/><path fill="#192e59" d="M 372.523438 337.339844 C 372.183594 337.246094 371.839844 337.183594 371.488281 337.160156 C 371.136719 337.132812 370.785156 337.140625 370.4375 337.183594 C 370.085938 337.226562 369.746094 337.304688 369.410156 337.417969 C 369.078125 337.527344 368.757812 337.667969 368.449219 337.84375 C 368.144531 338.015625 367.859375 338.21875 367.589844 338.449219 C 367.324219 338.679688 367.085938 338.933594 366.867188 339.210938 C 366.652344 339.488281 366.464844 339.785156 366.308594 340.101562 C 366.148438 340.414062 366.023438 340.742188 365.929688 341.082031 L 344.160156 419.402344 C 344.0625 419.742188 343.996094 420.089844 343.964844 420.441406 C 343.933594 420.796875 343.9375 421.148438 343.980469 421.503906 C 344.019531 421.855469 344.09375 422.199219 344.199219 422.539062 C 344.308594 422.878906 344.449219 423.203125 344.621094 423.511719 C 344.792969 423.820312 344.996094 424.113281 345.226562 424.382812 C 345.457031 424.652344 345.710938 424.898438 345.988281 425.117188 C 346.269531 425.335938 346.566406 425.523438 346.882812 425.683594 C 347.199219 425.84375 347.527344 425.972656 347.871094 426.066406 C 348.214844 426.164062 348.5625 426.222656 348.914062 426.246094 C 349.269531 426.273438 349.621094 426.261719 349.972656 426.21875 C 350.328125 426.175781 350.671875 426.09375 351.007812 425.980469 C 351.34375 425.867188 351.664062 425.722656 351.972656 425.546875 C 352.28125 425.367188 352.566406 425.164062 352.832031 424.929688 C 353.101562 424.695312 353.339844 424.433594 353.554688 424.152344 C 353.773438 423.871094 353.957031 423.570312 354.113281 423.25 C 354.265625 422.933594 354.390625 422.601562 354.480469 422.257812 L 376.25 343.941406 C 376.34375 343.601562 376.40625 343.257812 376.429688 342.90625 C 376.457031 342.554688 376.449219 342.203125 376.40625 341.855469 C 376.367188 341.503906 376.289062 341.164062 376.179688 340.828125 C 376.070312 340.492188 375.929688 340.171875 375.753906 339.867188 C 375.582031 339.558594 375.382812 339.273438 375.152344 339.007812 C 374.921875 338.738281 374.667969 338.496094 374.390625 338.28125 C 374.113281 338.0625 373.816406 337.875 373.503906 337.71875 C 373.1875 337.558594 372.863281 337.433594 372.523438 337.339844 Z M 372.523438 337.339844 " fill-opacity="1" fill-rule="nonzero"/><g clip-path="url(#b6eac8137b)"><path fill="#192e59" d="M 481.207031 256.878906 L 239.183594 256.878906 C 238.433594 256.878906 237.683594 256.921875 236.9375 256.996094 C 236.191406 257.074219 235.449219 257.183594 234.714844 257.335938 C 233.976562 257.484375 233.25 257.667969 232.535156 257.886719 C 231.816406 258.109375 231.109375 258.363281 230.417969 258.652344 C 229.726562 258.941406 229.046875 259.265625 228.386719 259.621094 C 227.726562 259.976562 227.085938 260.363281 226.460938 260.78125 C 225.839844 261.203125 225.238281 261.648438 224.660156 262.128906 C 224.078125 262.605469 223.523438 263.109375 222.996094 263.640625 C 222.464844 264.175781 221.964844 264.730469 221.488281 265.3125 C 221.015625 265.894531 220.570312 266.496094 220.152344 267.121094 C 219.738281 267.746094 219.351562 268.390625 219 269.054688 C 218.648438 269.71875 218.328125 270.394531 218.042969 271.089844 C 217.757812 271.785156 217.503906 272.488281 217.289062 273.207031 C 217.070312 273.925781 216.890625 274.65625 216.746094 275.390625 C 216.601562 276.128906 216.492188 276.871094 216.417969 277.617188 C 216.347656 278.363281 216.3125 279.113281 216.3125 279.863281 L 216.3125 440.238281 C 216.3125 440.988281 216.351562 441.734375 216.421875 442.480469 C 216.496094 443.226562 216.609375 443.964844 216.753906 444.699219 C 216.902344 445.433594 217.082031 446.160156 217.300781 446.878906 C 217.519531 447.59375 217.769531 448.296875 218.058594 448.988281 C 218.34375 449.683594 218.664062 450.359375 219.019531 451.019531 C 219.371094 451.679688 219.757812 452.320312 220.171875 452.941406 C 220.589844 453.566406 221.035156 454.167969 221.507812 454.746094 C 221.984375 455.324219 222.488281 455.878906 223.015625 456.40625 C 223.546875 456.9375 224.101562 457.441406 224.679688 457.914062 C 225.257812 458.390625 225.859375 458.835938 226.480469 459.253906 C 227.105469 459.667969 227.746094 460.054688 228.40625 460.40625 C 229.066406 460.761719 229.742188 461.082031 230.433594 461.367188 C 231.125 461.65625 231.828125 461.90625 232.546875 462.125 C 233.261719 462.34375 233.988281 462.523438 234.722656 462.671875 C 235.457031 462.820312 236.195312 462.929688 236.941406 463.003906 C 237.6875 463.078125 238.433594 463.113281 239.183594 463.117188 L 481.207031 463.117188 C 481.957031 463.113281 482.703125 463.078125 483.449219 463.003906 C 484.195312 462.929688 484.933594 462.820312 485.667969 462.671875 C 486.402344 462.523438 487.128906 462.34375 487.847656 462.125 C 488.5625 461.90625 489.265625 461.65625 489.957031 461.367188 C 490.648438 461.082031 491.328125 460.761719 491.988281 460.40625 C 492.648438 460.054688 493.289062 459.667969 493.910156 459.253906 C 494.535156 458.835938 495.132812 458.390625 495.714844 457.914062 C 496.292969 457.441406 496.847656 456.9375 497.375 456.40625 C 497.90625 455.878906 498.40625 455.324219 498.882812 454.746094 C 499.359375 454.167969 499.804688 453.566406 500.21875 452.941406 C 500.636719 452.320312 501.019531 451.679688 501.375 451.019531 C 501.726562 450.359375 502.046875 449.683594 502.335938 448.988281 C 502.621094 448.296875 502.875 447.59375 503.089844 446.878906 C 503.308594 446.160156 503.492188 445.433594 503.636719 444.699219 C 503.785156 443.964844 503.894531 443.226562 503.96875 442.480469 C 504.042969 441.734375 504.082031 440.988281 504.082031 440.238281 L 504.082031 279.863281 C 504.082031 279.113281 504.046875 278.363281 503.972656 277.617188 C 503.902344 276.871094 503.792969 276.128906 503.648438 275.390625 C 503.5 274.65625 503.320312 273.925781 503.105469 273.207031 C 502.886719 272.488281 502.636719 271.785156 502.351562 271.089844 C 502.0625 270.394531 501.746094 269.71875 501.390625 269.054688 C 501.039062 268.390625 500.65625 267.746094 500.238281 267.121094 C 499.824219 266.496094 499.378906 265.894531 498.902344 265.3125 C 498.429688 264.730469 497.925781 264.175781 497.398438 263.640625 C 496.867188 263.109375 496.3125 262.605469 495.734375 262.128906 C 495.15625 261.648438 494.554688 261.203125 493.929688 260.78125 C 493.308594 260.363281 492.667969 259.976562 492.003906 259.621094 C 491.34375 259.265625 490.667969 258.941406 489.972656 258.652344 C 489.28125 258.363281 488.578125 258.109375 487.859375 257.886719 C 487.140625 257.667969 486.414062 257.484375 485.679688 257.335938 C 484.941406 257.183594 484.203125 257.074219 483.457031 256.996094 C 482.707031 256.921875 481.960938 256.878906 481.207031 256.878906 Z M 227.019531 279.863281 C 227.015625 279.0625 227.089844 278.265625 227.242188 277.480469 C 227.398438 276.691406 227.625 275.925781 227.929688 275.183594 C 228.234375 274.441406 228.609375 273.734375 229.050781 273.066406 C 229.492188 272.398438 229.996094 271.777344 230.5625 271.207031 C 231.125 270.636719 231.742188 270.128906 232.40625 269.679688 C 233.070312 269.230469 233.773438 268.851562 234.511719 268.539062 C 235.253906 268.230469 236.015625 267.992188 236.800781 267.832031 C 237.585938 267.671875 238.382812 267.589844 239.183594 267.585938 L 481.207031 267.585938 C 482.011719 267.589844 482.804688 267.671875 483.589844 267.832031 C 484.378906 267.992188 485.140625 268.230469 485.878906 268.539062 C 486.621094 268.851562 487.320312 269.230469 487.988281 269.679688 C 488.652344 270.128906 489.265625 270.636719 489.832031 271.207031 C 490.394531 271.777344 490.898438 272.398438 491.34375 273.066406 C 491.785156 273.734375 492.160156 274.441406 492.460938 275.183594 C 492.765625 275.925781 492.996094 276.691406 493.148438 277.480469 C 493.300781 278.265625 493.378906 279.0625 493.375 279.863281 L 493.375 308.203125 L 227.019531 308.203125 Z M 481.207031 452.425781 L 239.183594 452.425781 C 238.386719 452.425781 237.59375 452.347656 236.8125 452.191406 C 236.027344 452.035156 235.265625 451.804688 234.53125 451.496094 C 233.792969 451.191406 233.089844 450.816406 232.425781 450.371094 C 231.761719 449.929688 231.148438 449.421875 230.585938 448.859375 C 230.019531 448.292969 229.515625 447.679688 229.070312 447.015625 C 228.628906 446.351562 228.253906 445.648438 227.945312 444.914062 C 227.640625 444.175781 227.410156 443.414062 227.253906 442.628906 C 227.097656 441.847656 227.019531 441.054688 227.019531 440.257812 L 227.019531 318.921875 L 493.375 318.921875 L 493.375 440.257812 C 493.375 441.054688 493.296875 441.847656 493.140625 442.628906 C 492.984375 443.414062 492.75 444.175781 492.445312 444.914062 C 492.140625 445.648438 491.765625 446.351562 491.320312 447.015625 C 490.878906 447.679688 490.375 448.292969 489.808594 448.859375 C 489.242188 449.421875 488.628906 449.929688 487.964844 450.371094 C 487.300781 450.816406 486.601562 451.191406 485.863281 451.496094 C 485.125 451.804688 484.363281 452.035156 483.582031 452.191406 C 482.796875 452.347656 482.007812 452.425781 481.207031 452.425781 Z M 481.207031 452.425781 " fill-opacity="1" fill-rule="nonzero"/></g><path fill="#192e59" d="M 250.875 277.464844 C 250.191406 277.464844 249.511719 277.53125 248.839844 277.667969 C 248.167969 277.800781 247.515625 277.996094 246.882812 278.257812 C 246.25 278.523438 245.648438 278.84375 245.082031 279.222656 C 244.511719 279.605469 243.984375 280.035156 243.5 280.519531 C 243.015625 281.003906 242.582031 281.53125 242.203125 282.101562 C 241.820312 282.667969 241.5 283.269531 241.238281 283.902344 C 240.976562 284.535156 240.777344 285.1875 240.644531 285.859375 C 240.511719 286.53125 240.445312 287.210938 240.445312 287.894531 C 240.441406 288.578125 240.511719 289.257812 240.644531 289.929688 C 240.777344 290.601562 240.972656 291.253906 241.234375 291.886719 C 241.496094 292.519531 241.820312 293.117188 242.199219 293.6875 C 242.578125 294.257812 243.011719 294.785156 243.496094 295.269531 C 243.980469 295.753906 244.503906 296.1875 245.074219 296.566406 C 245.644531 296.949219 246.246094 297.269531 246.878906 297.53125 C 247.507812 297.792969 248.160156 297.992188 248.832031 298.128906 C 249.503906 298.261719 250.183594 298.328125 250.867188 298.328125 C 251.550781 298.328125 252.230469 298.261719 252.902344 298.128906 C 253.574219 297.996094 254.226562 297.800781 254.859375 297.539062 C 255.492188 297.277344 256.09375 296.957031 256.664062 296.574219 C 257.234375 296.195312 257.761719 295.761719 258.246094 295.28125 C 258.730469 294.796875 259.164062 294.269531 259.542969 293.699219 C 259.925781 293.132812 260.246094 292.53125 260.507812 291.898438 C 260.769531 291.265625 260.96875 290.613281 261.105469 289.941406 C 261.238281 289.269531 261.304688 288.59375 261.304688 287.90625 C 261.304688 287.222656 261.238281 286.542969 261.105469 285.871094 C 260.972656 285.199219 260.773438 284.546875 260.511719 283.914062 C 260.25 283.28125 259.929688 282.679688 259.546875 282.109375 C 259.167969 281.539062 258.734375 281.011719 258.25 280.527344 C 257.765625 280.042969 257.242188 279.609375 256.671875 279.230469 C 256.101562 278.847656 255.5 278.527344 254.867188 278.265625 C 254.234375 278 253.582031 277.800781 252.910156 277.667969 C 252.238281 277.535156 251.558594 277.464844 250.875 277.464844 Z M 250.601562 287.90625 C 250.617188 287.742188 250.710938 287.660156 250.875 287.660156 C 251.042969 287.660156 251.132812 287.742188 251.152344 287.90625 C 251.152344 288.195312 250.601562 288.199219 250.601562 287.90625 Z M 250.601562 287.90625 " fill-opacity="1" fill-rule="nonzero"/><path fill="#192e59" d="M 286.765625 277.464844 C 286.082031 277.464844 285.402344 277.53125 284.730469 277.664062 C 284.058594 277.796875 283.40625 277.996094 282.773438 278.257812 C 282.140625 278.519531 281.539062 278.839844 280.96875 279.21875 C 280.398438 279.601562 279.871094 280.03125 279.386719 280.515625 C 278.902344 281 278.46875 281.527344 278.089844 282.09375 C 277.707031 282.664062 277.386719 283.265625 277.125 283.898438 C 276.863281 284.53125 276.664062 285.183594 276.527344 285.855469 C 276.394531 286.527344 276.328125 287.203125 276.328125 287.890625 C 276.328125 288.574219 276.394531 289.253906 276.527344 289.925781 C 276.660156 290.597656 276.855469 291.25 277.117188 291.882812 C 277.378906 292.515625 277.699219 293.117188 278.082031 293.683594 C 278.460938 294.253906 278.890625 294.78125 279.375 295.265625 C 279.859375 295.75 280.386719 296.183594 280.957031 296.566406 C 281.523438 296.945312 282.125 297.269531 282.757812 297.53125 C 283.390625 297.792969 284.042969 297.992188 284.714844 298.125 C 285.386719 298.261719 286.0625 298.328125 286.75 298.328125 C 287.433594 298.328125 288.113281 298.261719 288.785156 298.128906 C 289.457031 297.996094 290.109375 297.800781 290.742188 297.539062 C 291.375 297.277344 291.976562 296.957031 292.546875 296.578125 C 293.117188 296.195312 293.644531 295.765625 294.128906 295.28125 C 294.613281 294.796875 295.046875 294.269531 295.425781 293.703125 C 295.808594 293.132812 296.128906 292.53125 296.390625 291.898438 C 296.65625 291.265625 296.851562 290.613281 296.988281 289.941406 C 297.121094 289.269531 297.1875 288.59375 297.191406 287.90625 C 297.191406 287.222656 297.125 286.542969 296.988281 285.875 C 296.855469 285.203125 296.660156 284.550781 296.398438 283.917969 C 296.136719 283.285156 295.8125 282.683594 295.433594 282.113281 C 295.054688 281.542969 294.621094 281.015625 294.136719 280.53125 C 293.652344 280.046875 293.128906 279.613281 292.558594 279.230469 C 291.988281 278.851562 291.390625 278.527344 290.757812 278.265625 C 290.125 278.003906 289.472656 277.804688 288.800781 277.667969 C 288.128906 277.535156 287.449219 277.46875 286.765625 277.464844 Z M 286.484375 287.90625 C 286.503906 287.742188 286.59375 287.660156 286.761719 287.660156 C 286.925781 287.660156 287.019531 287.742188 287.035156 287.90625 C 287.039062 288.199219 286.484375 288.195312 286.484375 287.90625 Z M 286.484375 287.90625 " fill-opacity="1" fill-rule="nonzero"/></svg>